<?xml version="1.0" encoding="iso-8859-1"?>
<!-- Uploaded to: SVG Repo, www.svgrepo.com, Generator: SVG Repo Mixer Tools -->
<!DOCTYPE svg PUBLIC "-//W3C//DTD SVG 1.1//EN" "http://www.w3.org/Graphics/SVG/1.1/DTD/svg11.dtd">
<svg fill="currentcolor" height="800px" width="800px" version="1.1" id="Capa_1" xmlns="http://www.w3.org/2000/svg" xmlns:xlink="http://www.w3.org/1999/xlink"
	 viewBox="0 0 489.801 489.801" xml:space="preserve">
<g>
	<path d="M484.586,233.212c-5.084-4.578-125.779-111.967-239.689-111.967c-113.903,0-234.598,107.389-239.688,111.967
		C1.891,236.194,0,240.452,0,244.909c0,4.455,1.891,8.711,5.208,11.693c5.09,4.58,125.785,111.953,239.688,111.953
		c113.911,0,234.606-107.373,239.689-111.953c3.322-2.982,5.215-7.238,5.215-11.693
		C489.801,240.452,487.908,236.194,484.586,233.212z M244.896,333.915c-49.068,0-89.005-39.924-89.005-89.006
		c0-49.086,39.937-89.01,89.005-89.01c49.072,0,89.011,39.924,89.011,89.01C333.908,293.991,293.969,333.915,244.896,333.915z
		 M144.137,179.042c-12.422,18.949-19.721,41.553-19.721,65.867c0,24.277,7.268,46.855,19.686,65.803
		c-45.057-21.207-83.982-49.943-103.822-65.818C60.119,229.003,99.045,200.235,144.137,179.042z M345.664,310.757
		c12.416-18.947,19.719-41.551,19.719-65.848c0-24.281-7.285-46.873-19.688-65.822c45.043,21.209,83.969,49.945,103.821,65.822
		C429.677,260.8,390.756,289.55,345.664,310.757z"/>
	<path d="M244.896,194.259c-27.982,0-50.648,22.664-50.648,50.65c0,27.982,22.666,50.648,50.648,50.648
		c27.988,0,50.656-22.666,50.656-50.648C295.553,216.923,272.885,194.259,244.896,194.259z M244.896,226.298
		c-10.262,0-18.607,8.346-18.607,18.611c0,4.348-3.533,7.865-7.867,7.865c-4.365,0-7.869-3.518-7.869-7.865
		c0-18.934,15.4-34.348,34.344-34.348c4.352,0,7.871,3.52,7.871,7.867C252.768,222.78,249.248,226.298,244.896,226.298z"/>
</g>
</svg>
