<svg width="192" height="32" viewBox="0 0 192 32" fill="none" xmlns="http://www.w3.org/2000/svg">
<path d="M49.8201 10.6201C48.7238 9.72869 47.3423 9.26346 45.9301 9.31006H40.3601V24.3701H43.8701V19.2801H46.8701C47.1895 19.2815 47.508 19.2479 47.8201 19.1801H48.0001C49.0711 18.8474 49.9846 18.1366 50.5701 17.1801C51.1356 16.3573 51.4294 15.3782 51.4101 14.3801C51.4555 13.6729 51.3354 12.9649 51.0594 12.3122C50.7834 11.6595 50.3591 11.0801 49.8201 10.6201ZM47.8201 14.3001C47.8395 14.5383 47.8036 14.7778 47.7152 14.9998C47.6267 15.2219 47.4881 15.4205 47.3101 15.5801C46.8353 15.916 46.2609 16.0816 45.6801 16.0501H43.8601V12.5301H45.7201C46.3002 12.4902 46.8753 12.6606 47.3401 13.0101C47.5219 13.1697 47.6643 13.3692 47.7562 13.593C47.8481 13.8167 47.8871 14.0587 47.8701 14.3001H47.8201ZM175.4 10.6201C174.3 9.7288 172.915 9.26375 171.5 9.31006H165.93V24.3701H169.44V19.2801H172.44C172.776 19.2852 173.112 19.2516 173.44 19.1801H173.63C174.697 18.8445 175.606 18.134 176.19 17.1801C176.756 16.3573 177.049 15.3782 177.03 14.3801C177.069 13.6698 176.942 12.9602 176.659 12.3076C176.376 11.6549 175.945 11.0772 175.4 10.6201ZM173.4 14.3001C173.42 14.5392 173.383 14.7797 173.293 15.0021C173.202 15.2245 173.061 15.4224 172.88 15.5801C172.41 15.9174 171.838 16.0833 171.26 16.0501H169.4V12.5301H171.26C171.837 12.489 172.41 12.6597 172.87 13.0101C173.054 13.1682 173.197 13.3675 173.29 13.5916C173.382 13.8158 173.419 14.0585 173.4 14.3001ZM69.2401 11.0001C67.7782 9.56662 65.8125 8.76367 63.7651 8.76367C61.7177 8.76367 59.752 9.56662 58.2901 11.0001C56.888 12.514 56.109 14.5015 56.109 16.5651C56.109 18.6286 56.888 20.6161 58.2901 22.1301C59.7653 23.5573 61.7375 24.3552 63.7901 24.3552C65.8427 24.3552 67.8149 23.5573 69.2901 22.1301C70.6879 20.6139 71.464 18.6272 71.464 16.5651C71.464 14.5029 70.6879 12.5162 69.2901 11.0001H69.2401ZM66.7001 19.8101C66.3156 20.1953 65.8589 20.5009 65.3561 20.7094C64.8533 20.9179 64.3144 21.0252 63.7701 21.0252C63.2258 21.0252 62.6869 20.9179 62.1841 20.7094C61.6813 20.5009 61.2246 20.1953 60.8401 19.8101C60.0985 18.9027 59.6933 17.7669 59.6933 16.5951C59.6933 15.4232 60.0985 14.2874 60.8401 13.3801C61.2188 12.9925 61.6703 12.6836 62.1688 12.4712C62.6673 12.2588 63.2029 12.147 63.7447 12.1424C64.2865 12.1377 64.8239 12.2403 65.326 12.4441C65.8281 12.6479 66.2849 12.949 66.6701 13.3301V13.3801C67.4171 14.2849 67.8257 15.4217 67.8257 16.5951C67.8257 17.7684 67.4171 18.9052 66.6701 19.8101H66.7001ZM158.94 11.0001C157.479 9.56962 155.515 8.76857 153.47 8.76857C151.425 8.76857 149.462 9.56962 148 11.0001C146.598 12.514 145.819 14.5015 145.819 16.5651C145.819 18.6286 146.598 20.6161 148 22.1301C149.474 23.5596 151.447 24.3591 153.5 24.3591C155.553 24.3591 157.526 23.5596 159 22.1301C160.402 20.6161 161.181 18.6286 161.181 16.5651C161.181 14.5015 160.402 12.514 159 11.0001H158.94ZM156.4 19.7701C156.016 20.155 155.561 20.4603 155.059 20.6687C154.557 20.8771 154.019 20.9844 153.475 20.9844C152.932 20.9844 152.394 20.8771 151.892 20.6687C151.39 20.4603 150.934 20.155 150.55 19.7701C149.808 18.8627 149.403 17.7269 149.403 16.5551C149.403 15.3832 149.808 14.2474 150.55 13.3401C150.929 12.9525 151.38 12.6436 151.879 12.4312C152.377 12.2188 152.913 12.107 153.455 12.1024C153.997 12.0977 154.534 12.2003 155.036 12.4041C155.538 12.6079 155.995 12.909 156.38 13.2901L156.43 13.3401C157.186 14.2407 157.601 15.3791 157.601 16.5551C157.601 17.731 157.186 18.8694 156.43 19.7701H156.4ZM190.92 9.31006H181.67V24.3701H185.2V12.5601H189.85L190.02 12.3001L191.41 10.2101L192 9.31006H190.92ZM142.11 9.31006H129.74V12.5601H134.45V24.3701H138V12.5601H142.71V9.31006H142.11ZM87.0001 20.4401L86.6701 20.2801L86.3801 20.5101C85.6878 21.0305 84.8352 21.2923 83.9701 21.2501C83.379 21.2771 82.7887 21.1799 82.2375 20.9646C81.6863 20.7492 81.1864 20.4207 80.7701 20.0001C80.3532 19.5573 80.0294 19.0352 79.8181 18.4649C79.6068 17.8946 79.5123 17.2876 79.5401 16.6801C79.5118 16.0815 79.6063 15.4835 79.8178 14.9228C80.0294 14.3621 80.3534 13.8507 80.7701 13.4201C81.1838 13.0051 81.6792 12.6806 82.2249 12.4671C82.7706 12.2537 83.3547 12.1559 83.9401 12.1801C84.4584 12.1868 84.9695 12.3026 85.4401 12.5201C85.9558 12.7541 86.416 13.0949 86.7901 13.5201L87.1401 13.9401L87.5701 13.6101L89.1801 12.4001L89.6701 12.0301L89.2801 11.5701C88.6395 10.7614 87.8229 10.1095 86.8923 9.66413C85.9617 9.21877 84.9417 8.99164 83.9101 9.00006C82.8649 8.99255 81.8273 9.17904 80.8501 9.55006C79.9114 9.90326 79.0566 10.4482 78.3401 11.1501C77.6065 11.8487 77.0333 12.6983 76.6601 13.6401C76.2766 14.5934 76.0829 15.6125 76.0901 16.6401C76.0868 17.6654 76.2733 18.6826 76.6401 19.6401C77.0035 20.5707 77.5472 21.4203 78.2401 22.1401C78.9485 22.8496 79.8011 23.3986 80.7401 23.7501C81.7533 24.1143 82.8236 24.2938 83.9001 24.2801C84.7801 24.3218 85.6596 24.1896 86.4884 23.891C87.3172 23.5925 88.0789 23.1334 88.7301 22.5401C88.8542 22.4239 88.9711 22.3004 89.0801 22.1701L89.5701 21.6001L88.8901 21.2701L87.0001 20.4401ZM107.34 13.6501C106.957 12.7185 106.386 11.8756 105.664 11.1738C104.941 10.4719 104.082 9.92603 103.14 9.57006C102.181 9.20882 101.165 9.02254 100.14 9.02006C99.1075 9.01209 98.0868 9.24043 97.1561 9.68761C96.2253 10.1348 95.4092 10.789 94.7701 11.6001L94.3801 12.0701L94.8701 12.4301L96.4701 13.6401L96.9101 13.9701L97.2601 13.5601C97.6313 13.136 98.088 12.7953 98.6001 12.5601C99.0701 12.3422 99.5821 12.2296 100.1 12.2301C100.687 12.2007 101.273 12.2951 101.821 12.507C102.369 12.7189 102.866 13.0436 103.28 13.4601L103.6 13.8201C103.618 13.8678 103.649 13.9094 103.69 13.9401C104.063 14.4644 104.312 15.066 104.42 15.7001H98.5501L99.1601 16.6001L100.23 18.1901L100.4 18.4401H104.2C103.997 19.0445 103.654 19.5927 103.2 20.0401C102.785 20.4622 102.285 20.7918 101.734 21.0072C101.182 21.2226 100.591 21.319 100 21.2901C99.1378 21.3351 98.2874 21.0729 97.6001 20.5501L97.3101 20.3201L96.9801 20.4801L95.0701 21.4101L94.3901 21.7401L94.8801 22.3101C95.0001 22.4501 95.1201 22.5601 95.2301 22.6801C95.8813 23.2734 96.643 23.7325 97.4718 24.031C98.3006 24.3296 99.1802 24.4618 100.06 24.4201C101.137 24.4354 102.207 24.2558 103.22 23.8901C104.158 23.5413 105.007 22.9918 105.71 22.2801C106.409 21.5634 106.957 20.7131 107.32 19.7801C107.687 18.8226 107.873 17.8054 107.87 16.7801C107.9 15.7121 107.72 14.6486 107.34 13.6501ZM126.3 23.5801L120.58 9.69005L120.44 9.33006H117.17L117.03 9.69005L111.35 23.5801L111.02 24.3801H115.02L115.16 24.0101L118.85 14.8801L122.51 24.0001L122.66 24.3701H126.66L126.3 23.5801Z" fill="white"/>
<path d="M14.41 17.5901H0C0.0979373 18.6349 0.302331 19.6669 0.61 20.6701H9.15L3.59 26.2301C4.23986 27.0297 4.97039 27.7603 5.77 28.4101L11.33 22.8501V31.3901C12.3332 31.6978 13.3652 31.9022 14.41 32.0001V17.5901ZM31.91 17.5901H17.5V32.0001C18.5448 31.9022 19.5768 31.6978 20.58 31.3901V20.6701H28C27.3941 22.2353 26.4908 23.6684 25.34 24.8901V29.0001C28.1654 26.9442 30.2437 24.0233 31.26 20.6801V20.6201C31.32 20.4301 31.37 20.2301 31.42 20.0301C31.4234 19.9768 31.4234 19.9234 31.42 19.8701C31.48 19.6501 31.52 19.4401 31.57 19.2301V19.0501C31.57 18.8701 31.64 18.6901 31.67 18.5001C31.6657 18.4469 31.6657 18.3934 31.67 18.3401C31.67 18.1701 31.72 18.0001 31.74 17.8301C31.7894 17.7452 31.8463 17.6649 31.91 17.5901ZM16 0.000121188C11.9899 -0.0154779 8.12014 1.47533 5.15699 4.17736C2.19384 6.87938 0.353363 10.5956 0 14.5901H10.9L12.62 11.5201H3.83C4.09826 10.7814 4.43296 10.0684 4.83 9.39012H13.83L15.55 6.31012H7.41C9.7691 4.22706 12.8079 3.07747 15.955 3.07747C19.1021 3.07747 22.1409 4.22706 24.5 6.31012H16.38L18.1 9.39012H27.1C27.4967 10.0686 27.8314 10.7815 28.1 11.5201H19.3L21 14.5901H31.9C31.5481 10.6128 29.7219 6.91074 26.7799 4.21115C23.8379 1.51156 19.9929 0.00954304 16 0.000121188Z" fill="white"/>
</svg>
