<svg width="224" height="36" viewBox="0 0 224 36" fill="none" xmlns="http://www.w3.org/2000/svg">
<path d="M49.6956 1.74951C48.5769 0.874512 47.3339 0.374512 45.7179 0.374512H40.6215H40V0.999512V15.3745V15.9995H40.6215H42.9833H43.6048V15.3745V10.7495H46.7124C47.0853 10.7495 47.3339 10.7495 47.7068 10.6245H47.8311C49.3227 10.1245 49.9442 9.24951 50.4414 8.49951C51.0629 7.74951 51.3116 6.74951 51.3116 5.62451C51.4359 3.99951 50.8143 2.74951 49.6956 1.74951ZM47.7068 5.62451C47.7068 6.24951 47.5825 6.62451 47.2096 6.99951C46.8367 7.37451 46.2151 7.49951 45.5936 7.49951H43.7291V3.74951H45.4693C46.2151 3.74951 46.7124 3.87451 47.0853 4.24951C47.5825 4.49951 47.7068 4.99951 47.7068 5.62451Z" fill="black"/>
<path d="M178.971 1.74951C177.852 0.874512 176.609 0.374512 174.993 0.374512H169.772H169.151V0.999512V15.3745V15.9995H169.772H172.134H172.755V15.3745V10.7495H175.863C176.236 10.7495 176.484 10.7495 176.857 10.6245H176.982C178.473 10.1245 179.095 9.24951 179.592 8.49951C180.214 7.74951 180.462 6.74951 180.462 5.62451C180.586 3.99951 179.965 2.74951 178.971 1.74951ZM176.857 5.62451C176.857 6.24951 176.733 6.62451 176.36 6.99951C175.987 7.37451 175.366 7.49951 174.744 7.49951H172.88V3.74951H174.744C175.49 3.74951 175.987 3.87451 176.36 4.24951C176.733 4.49951 176.857 4.99951 176.857 5.62451Z" fill="black"/>
<path d="M69.7084 2.25C68.2167 0.75 66.3522 0 64.1147 0C61.8773 0 60.0128 0.75 58.5211 2.25C57.0295 3.75 56.2837 5.75 56.2837 8C56.2837 10.25 57.0295 12.25 58.5211 13.75C60.0128 15.25 61.8773 16 64.1147 16C66.3522 16 68.2167 15.25 69.7084 13.75C71.2 12.25 71.9458 10.25 71.9458 8C71.9458 5.625 71.2 3.75 69.7084 2.25ZM67.098 11.25C66.3522 12.125 65.3578 12.5 64.1147 12.5C62.8717 12.5 61.8773 12.125 61.1315 11.25C60.3857 10.375 59.8884 9.25 59.8884 7.875C59.8884 6.5 60.2614 5.375 61.1315 4.5C61.8773 3.625 62.8717 3.25 64.1147 3.25C65.3578 3.25 66.3522 3.625 67.098 4.5C67.8438 5.375 68.341 6.5 68.341 7.875C68.341 9.375 67.8438 10.375 67.098 11.25Z" fill="black"/>
<path d="M161.941 2.25C160.449 0.75 158.585 0 156.347 0C154.11 0 152.245 0.75 150.754 2.25C149.262 3.75 148.516 5.75 148.516 8C148.516 10.25 149.262 12.25 150.754 13.75C152.245 15.25 154.11 16 156.347 16C158.585 16 160.449 15.25 161.941 13.75C163.433 12.25 164.179 10.25 164.179 8C164.179 5.625 163.433 3.75 161.941 2.25ZM159.331 11.25C158.585 12.125 157.59 12.5 156.347 12.5C155.104 12.5 154.11 12.125 153.364 11.25C152.618 10.375 152.121 9.25 152.121 7.875C152.121 6.5 152.494 5.375 153.364 4.5C154.11 3.625 155.104 3.25 156.347 3.25C157.59 3.25 158.585 3.625 159.331 4.5C160.077 5.375 160.574 6.5 160.574 7.875C160.574 9.375 160.201 10.375 159.331 11.25Z" fill="black"/>
<path d="M194.881 0.374512H185.931H185.434V0.999512V15.3745V15.9995H185.931H188.418H189.039V15.3745V3.74951H193.514H193.763L194.011 3.49951L195.378 1.37451L196 0.374512H194.881Z" fill="black"/>
<path d="M144.663 0.374512H132.606H131.984V0.999512V3.24951V3.74951H132.606H136.832V15.3745V15.9995H137.453H139.815H140.437V15.3745V3.74951H144.663H145.284V3.24951V0.999512V0.374512H144.663Z" fill="black"/>
<path d="M87.981 12L87.6081 11.875L87.3595 12.125C86.738 12.625 85.8678 12.875 84.8734 12.875C83.5061 12.875 82.3874 12.5 81.6415 11.625C80.7714 10.75 80.3985 9.625 80.3985 8.25C80.3985 6.875 80.7714 5.75 81.6415 4.875C82.5117 4 83.5061 3.625 84.8734 3.625C85.3706 3.625 85.8678 3.75 86.365 4C86.8623 4.25 87.3595 4.625 87.7324 5.125L88.1053 5.5L88.6025 5.125L90.2184 3.875L90.7156 3.5L90.3427 3C89.5969 2.125 88.7268 1.375 87.8567 1C86.8623 0.375 85.8678 0.125 84.7491 0.125C83.6304 0.125 82.636 0.375 81.6415 0.75C80.6471 1.125 79.777 1.75 79.0312 2.375C78.2854 3.125 77.6638 4 77.2909 5C76.918 6 76.6694 7 76.6694 8.125C76.6694 9.25 76.918 10.25 77.2909 11.25C77.6638 12.25 78.2854 13.125 78.9069 13.875C79.6527 14.625 80.5228 15.125 81.5172 15.5C82.5117 15.875 83.6304 16 84.7491 16C86.8623 16 88.4782 15.375 89.7212 14.25C89.8455 14.125 89.9698 14 90.0941 13.875L90.5913 13.25L89.8455 12.875L87.981 12Z" fill="black"/>
<path d="M108.864 4.875C108.491 3.875 107.869 3 107.124 2.25C106.378 1.5 105.508 1 104.513 0.625C103.643 0.375 102.524 0.125 101.406 0.125C100.411 0.125 99.2925 0.375 98.4224 0.75C97.428 1.25 96.6822 1.875 95.9364 2.75L95.5635 3.25L96.0607 3.625L97.6766 4.875L98.1738 5.25L98.5467 4.875C98.9196 4.375 99.4168 4 99.9141 3.75C100.411 3.5 100.908 3.375 101.406 3.375C102.773 3.375 103.892 3.75 104.637 4.625C104.762 4.75 104.886 4.875 105.01 5C105.01 5 105.01 5.125 105.135 5.125C105.508 5.625 105.756 6.25 105.88 7H101.033H99.9141L100.535 7.875L101.654 9.5L101.778 9.75H102.151H105.756C105.508 10.375 105.259 10.875 104.762 11.375C103.892 12.25 102.897 12.625 101.53 12.625C100.535 12.625 99.6654 12.375 99.0439 11.875L98.7953 11.625L98.4224 11.75L96.4336 12.75L95.6878 13.125L96.185 13.75C96.3093 13.875 96.4336 14 96.5579 14.125C97.8009 15.375 99.4168 15.875 101.53 15.875C102.773 15.875 103.892 15.75 104.762 15.375C105.756 15 106.626 14.5 107.372 13.75C108.118 13 108.615 12.125 108.988 11.125C109.361 10.125 109.61 9.125 109.61 8C109.485 7 109.361 5.875 108.864 4.875Z" fill="black"/>
<path d="M128.379 15.125L122.537 0.875L122.413 0.5H122.04H119.429H119.057L118.808 0.875L113.09 15.25L112.717 16H113.587H116.322H116.819L116.943 15.625L120.673 6.25L124.526 15.625L124.65 16H125.023H127.882H128.752L128.379 15.125Z" fill="black"/>
<path d="M42.769 24.004C43.445 24.004 44.1383 24.0083 44.849 24.017C45.5683 24.0257 46.2357 24.056 46.851 24.108L46.773 25.317H43.263C42.795 25.317 42.561 25.5683 42.561 26.071V27.709H46.279V28.905H42.561V30.959C42.561 31.4617 42.795 31.713 43.263 31.713H46.773L46.851 32.922C46.2357 32.974 45.5683 33.0043 44.849 33.013C44.1383 33.0217 43.445 33.026 42.769 33.026C42.2143 33.026 41.768 32.8743 41.43 32.571C41.1007 32.259 40.936 31.843 40.936 31.323V25.707C40.936 25.187 41.1007 24.7753 41.43 24.472C41.768 24.16 42.2143 24.004 42.769 24.004ZM54.9798 31.856V34.846H53.9398L53.8228 33H48.8828L48.7658 34.846H47.7388V31.856H48.4928C48.7614 31.2493 48.9608 30.634 49.0908 30.01C49.2208 29.386 49.3161 28.7533 49.3768 28.112C49.4201 27.618 49.5804 27.2453 49.8578 26.994C50.1351 26.7427 50.5381 26.617 51.0668 26.617H54.0438V31.856H54.9798ZM50.7678 28.398C50.6898 29.1 50.5814 29.7327 50.4428 30.296C50.3128 30.8593 50.1264 31.3793 49.8838 31.856H52.5488V27.722H51.4828C51.0494 27.722 50.8111 27.9473 50.7678 28.398ZM62.2767 26.617V33L60.8597 33.013V29.282C60.8597 29.126 60.8641 28.9743 60.8727 28.827C60.8901 28.671 60.9031 28.5063 60.9117 28.333H60.8857C60.8251 28.4717 60.7514 28.6233 60.6647 28.788C60.5781 28.944 60.4914 29.0783 60.4047 29.191L57.6357 33H56.2837V26.617H57.7007V30.387C57.7007 30.543 57.6964 30.6903 57.6877 30.829C57.6791 30.9677 57.6661 31.1237 57.6487 31.297H57.6747C57.7441 31.1497 57.8177 31.0067 57.8957 30.868C57.9824 30.7293 58.0691 30.6037 58.1557 30.491L60.9377 26.617H62.2767ZM65.6386 26.617V29.074H68.4726V26.617H70.0196V33H68.4726V30.179H65.6386V33H64.0786V26.617H65.6386ZM74.5401 28.957C75.2334 28.957 75.7751 29.022 76.1651 29.152C76.5638 29.2733 76.8454 29.4857 77.0101 29.789C77.1834 30.0837 77.2701 30.491 77.2701 31.011C77.2701 31.5483 77.1834 31.9687 77.0101 32.272C76.8368 32.5667 76.5681 32.7747 76.2041 32.896C75.8488 33.0173 75.3808 33.078 74.8001 33.078C74.3494 33.078 73.9594 33.0737 73.6301 33.065C73.3008 33.065 72.9974 33.0563 72.7201 33.039C72.4428 33.0303 72.1568 33.0173 71.8621 33H71.8101V26.617H73.3441V28.957H74.5401ZM79.8441 26.617V33H78.2451V26.617H79.8441ZM74.5401 29.971H73.3441V31.947C73.6994 31.9557 74.0981 31.96 74.5401 31.96C74.9734 31.96 75.2724 31.895 75.4371 31.765C75.6018 31.635 75.6841 31.3663 75.6841 30.959C75.6841 30.5777 75.6061 30.3177 75.4501 30.179C75.2941 30.0403 74.9908 29.971 74.5401 29.971ZM87.6293 26.617V33L86.2123 33.013V29.282C86.2123 29.126 86.2166 28.9743 86.2253 28.827C86.2426 28.671 86.2556 28.5063 86.2643 28.333H86.2383C86.1776 28.4717 86.1039 28.6233 86.0173 28.788C85.9306 28.944 85.8439 29.0783 85.7573 29.191L82.9883 33H81.6363V26.617H83.0533V30.387C83.0533 30.543 83.0489 30.6903 83.0403 30.829C83.0316 30.9677 83.0186 31.1237 83.0013 31.297H83.0273C83.0966 31.1497 83.1703 31.0067 83.2483 30.868C83.3349 30.7293 83.4216 30.6037 83.5083 30.491L86.2903 26.617H87.6293ZM85.5883 23.783H86.6673C86.7019 24.1383 86.6413 24.4633 86.4853 24.758C86.3293 25.044 86.0909 25.278 85.7703 25.46C85.4583 25.6333 85.0769 25.72 84.6263 25.72C84.1756 25.72 83.7856 25.6333 83.4563 25.46C83.1356 25.278 82.8973 25.044 82.7413 24.758C82.5853 24.4633 82.5246 24.1383 82.5593 23.783H83.6383C83.6209 24.173 83.6989 24.459 83.8723 24.641C84.0456 24.823 84.2969 24.914 84.6263 24.914C84.9383 24.914 85.1809 24.823 85.3543 24.641C85.5276 24.459 85.6056 24.173 85.5883 23.783ZM98.0076 26.617V33H96.4346V27.748H95.3556C95.113 27.748 94.9353 27.8043 94.8226 27.917C94.7186 28.021 94.6536 28.1987 94.6276 28.45C94.5583 28.996 94.4846 29.5507 94.4066 30.114C94.3286 30.6773 94.2246 31.1583 94.0946 31.557C93.9473 32.1377 93.6613 32.545 93.2366 32.779C92.8206 33.013 92.3223 33.1083 91.7416 33.065L91.5726 31.895C91.902 31.8257 92.149 31.739 92.3136 31.635C92.4783 31.5223 92.604 31.349 92.6906 31.115C92.7686 30.881 92.838 30.5993 92.8986 30.27C92.9593 29.9407 93.0113 29.594 93.0546 29.23C93.098 28.8573 93.1326 28.502 93.1586 28.164C93.2193 27.6527 93.3796 27.267 93.6396 27.007C93.9083 26.747 94.3113 26.617 94.8486 26.617H98.0076ZM105.809 26.617V33L104.392 33.013V29.282C104.392 29.126 104.396 28.9743 104.405 28.827C104.422 28.671 104.435 28.5063 104.444 28.333H104.418C104.357 28.4717 104.284 28.6233 104.197 28.788C104.11 28.944 104.024 29.0783 103.937 29.191L101.168 33H99.8159V26.617H101.233V30.387C101.233 30.543 101.229 30.6903 101.22 30.829C101.211 30.9677 101.198 31.1237 101.181 31.297H101.207C101.276 31.1497 101.35 31.0067 101.428 30.868C101.515 30.7293 101.601 30.6037 101.688 30.491L104.47 26.617H105.809ZM108.898 26.617V28.983C108.898 29.243 108.954 29.4293 109.067 29.542C109.188 29.646 109.379 29.698 109.639 29.698C109.925 29.698 110.207 29.672 110.484 29.62C110.77 29.568 111.082 29.4727 111.42 29.334V26.617H112.993V33H111.42V30.478C111.03 30.6167 110.627 30.725 110.211 30.803C109.804 30.8723 109.44 30.907 109.119 30.907C107.932 30.907 107.338 30.4303 107.338 29.477V26.617H108.898ZM116.356 26.617V29.074H119.19V26.617H120.737V33H119.19V30.179H116.356V33H114.796V26.617H116.356ZM125.258 28.957C125.951 28.957 126.493 29.022 126.883 29.152C127.282 29.2733 127.563 29.4857 127.728 29.789C127.901 30.0837 127.988 30.491 127.988 31.011C127.988 31.5483 127.901 31.9687 127.728 32.272C127.555 32.5667 127.286 32.7747 126.922 32.896C126.567 33.0173 126.099 33.078 125.518 33.078C125.067 33.078 124.677 33.0737 124.348 33.065C124.019 33.065 123.715 33.0563 123.438 33.039C123.161 33.0303 122.875 33.0173 122.58 33H122.528V26.617H124.062V28.957H125.258ZM130.562 26.617V33H128.963V26.617H130.562ZM125.258 29.971H124.062V31.947C124.417 31.9557 124.816 31.96 125.258 31.96C125.691 31.96 125.99 31.895 126.155 31.765C126.32 31.635 126.402 31.3663 126.402 30.959C126.402 30.5777 126.324 30.3177 126.168 30.179C126.012 30.0403 125.709 29.971 125.258 29.971ZM138.347 26.617V33L136.93 33.013V29.282C136.93 29.126 136.934 28.9743 136.943 28.827C136.96 28.671 136.973 28.5063 136.982 28.333H136.956C136.895 28.4717 136.822 28.6233 136.735 28.788C136.648 28.944 136.562 29.0783 136.475 29.191L133.706 33H132.354V26.617H133.771V30.387C133.771 30.543 133.767 30.6903 133.758 30.829C133.749 30.9677 133.736 31.1237 133.719 31.297H133.745C133.814 31.1497 133.888 31.0067 133.966 30.868C134.053 30.7293 134.139 30.6037 134.226 30.491L137.008 26.617H138.347ZM136.306 23.783H137.385C137.42 24.1383 137.359 24.4633 137.203 24.758C137.047 25.044 136.809 25.278 136.488 25.46C136.176 25.6333 135.795 25.72 135.344 25.72C134.893 25.72 134.503 25.6333 134.174 25.46C133.853 25.278 133.615 25.044 133.459 24.758C133.303 24.4633 133.242 24.1383 133.277 23.783H134.356C134.339 24.173 134.417 24.459 134.59 24.641C134.763 24.823 135.015 24.914 135.344 24.914C135.656 24.914 135.899 24.823 136.072 24.641C136.245 24.459 136.323 24.173 136.306 23.783ZM144.578 26.617V28.372C144.578 28.632 144.552 28.8877 144.5 29.139H145.176C145.549 29.139 145.844 29.0567 146.06 28.892C146.277 28.7273 146.463 28.463 146.619 28.099C146.775 27.7263 146.953 27.2323 147.152 26.617H148.764C148.574 27.1717 148.405 27.6353 148.257 28.008C148.119 28.372 147.971 28.671 147.815 28.905C147.668 29.1303 147.482 29.3037 147.256 29.425C147.04 29.5377 146.758 29.6157 146.411 29.659V29.711C146.775 29.7457 147.074 29.8237 147.308 29.945C147.542 30.0577 147.742 30.2353 147.906 30.478C148.08 30.712 148.244 31.0327 148.4 31.44C148.556 31.8473 148.743 32.3673 148.959 33H147.308C147.118 32.4367 146.953 31.9773 146.814 31.622C146.676 31.258 146.537 30.9763 146.398 30.777C146.26 30.5777 146.095 30.439 145.904 30.361C145.714 30.283 145.475 30.244 145.189 30.244H144.513C144.557 30.4607 144.578 30.6557 144.578 30.829V33H143.005V26.617H144.578ZM153.415 26.461C154.178 26.461 154.758 26.6213 155.157 26.942C155.564 27.254 155.768 27.8303 155.768 28.671V33H154.52L154.351 31.96C154.195 32.142 153.996 32.324 153.753 32.506C153.51 32.6793 153.229 32.8267 152.908 32.948C152.596 33.0693 152.245 33.13 151.855 33.13C151.274 33.13 150.798 32.9783 150.425 32.675C150.052 32.3717 149.866 31.9297 149.866 31.349V30.673C149.866 30.1703 150.031 29.7803 150.36 29.503C150.689 29.217 151.149 29.074 151.738 29.074H154.195V28.658C154.186 28.32 154.104 28.0773 153.948 27.93C153.792 27.774 153.497 27.696 153.064 27.696C152.726 27.696 152.306 27.709 151.803 27.735C151.309 27.761 150.811 27.7957 150.308 27.839L150.165 26.76C150.468 26.708 150.811 26.6603 151.192 26.617C151.573 26.565 151.959 26.526 152.349 26.5C152.739 26.474 153.094 26.461 153.415 26.461ZM151.426 31.141C151.426 31.661 151.712 31.9253 152.284 31.934C152.561 31.934 152.869 31.869 153.207 31.739C153.554 31.609 153.883 31.4183 154.195 31.167V30.049H152.167C151.898 30.0577 151.708 30.127 151.595 30.257C151.482 30.387 151.426 30.5647 151.426 30.79V31.141ZM163.002 23.406L163.288 24.615C162.915 24.8317 162.569 24.9747 162.248 25.044C161.927 25.1133 161.611 25.1653 161.299 25.2C160.996 25.226 160.675 25.2823 160.337 25.369C159.791 25.525 159.41 25.759 159.193 26.071C158.976 26.3743 158.833 26.7037 158.764 27.059C158.703 27.241 158.66 27.4143 158.634 27.579C158.617 27.735 158.599 27.8737 158.582 27.995H158.621C158.742 27.7957 158.89 27.6093 159.063 27.436C159.245 27.254 159.488 27.1067 159.791 26.994C160.094 26.8813 160.489 26.825 160.974 26.825C161.633 26.825 162.153 26.929 162.534 27.137C162.924 27.345 163.201 27.6743 163.366 28.125C163.539 28.5757 163.626 29.1607 163.626 29.88C163.626 30.5733 163.535 31.167 163.353 31.661C163.18 32.1463 162.868 32.519 162.417 32.779C161.975 33.0303 161.355 33.156 160.558 33.156C159.813 33.156 159.228 33.0563 158.803 32.857C158.378 32.649 158.066 32.363 157.867 31.999C157.676 31.6263 157.555 31.193 157.503 30.699C157.451 30.205 157.425 29.6677 157.425 29.087C157.425 28.203 157.477 27.4403 157.581 26.799C157.694 26.149 157.919 25.6117 158.257 25.187C158.604 24.7537 159.124 24.4287 159.817 24.212C160.19 24.0907 160.545 24.0127 160.883 23.978C161.23 23.9347 161.572 23.8827 161.91 23.822C162.257 23.7527 162.621 23.614 163.002 23.406ZM160.584 27.943C160.151 27.943 159.821 28.0123 159.596 28.151C159.379 28.2897 159.232 28.502 159.154 28.788C159.076 29.0653 159.037 29.4293 159.037 29.88C159.037 30.4173 159.085 30.8377 159.18 31.141C159.275 31.4443 159.431 31.6567 159.648 31.778C159.865 31.8993 160.155 31.96 160.519 31.96C160.883 31.96 161.169 31.8993 161.377 31.778C161.594 31.6567 161.745 31.4443 161.832 31.141C161.927 30.8377 161.975 30.4173 161.975 29.88C161.975 29.3687 161.932 28.9743 161.845 28.697C161.767 28.411 161.624 28.216 161.416 28.112C161.217 27.9993 160.939 27.943 160.584 27.943ZM171.139 26.617V33L169.722 33.013V29.282C169.722 29.126 169.726 28.9743 169.735 28.827C169.752 28.671 169.765 28.5063 169.774 28.333H169.748C169.687 28.4717 169.614 28.6233 169.527 28.788C169.44 28.944 169.354 29.0783 169.267 29.191L166.498 33H165.146V26.617H166.563V30.387C166.563 30.543 166.559 30.6903 166.55 30.829C166.541 30.9677 166.528 31.1237 166.511 31.297H166.537C166.606 31.1497 166.68 31.0067 166.758 30.868C166.845 30.7293 166.931 30.6037 167.018 30.491L169.8 26.617H171.139ZM174.501 26.617V29.074H177.335V26.617H178.882V33H177.335V30.179H174.501V33H172.941V26.617H174.501ZM183.519 26.461C184.551 26.461 185.292 26.643 185.742 27.007C186.193 27.3623 186.423 27.891 186.431 28.593C186.431 29.1737 186.293 29.6157 186.015 29.919C185.747 30.2137 185.287 30.361 184.637 30.361H182.05C182.111 30.9763 182.276 31.3837 182.544 31.583C182.813 31.7823 183.229 31.882 183.792 31.882C184.113 31.882 184.481 31.869 184.897 31.843C185.322 31.817 185.729 31.7823 186.119 31.739L186.275 32.74C186.041 32.8353 185.773 32.9177 185.469 32.987C185.166 33.0477 184.85 33.091 184.52 33.117C184.191 33.143 183.883 33.156 183.597 33.156C182.436 33.156 181.608 32.896 181.114 32.376C180.629 31.8473 180.386 30.9937 180.386 29.815C180.386 28.9743 180.49 28.3113 180.698 27.826C180.915 27.332 181.253 26.981 181.712 26.773C182.172 26.565 182.774 26.461 183.519 26.461ZM183.571 27.631C183.199 27.631 182.9 27.6787 182.674 27.774C182.458 27.8693 182.297 28.047 182.193 28.307C182.098 28.5583 182.046 28.918 182.037 29.386H184.208C184.494 29.386 184.676 29.308 184.754 29.152C184.841 28.996 184.884 28.8053 184.884 28.58C184.884 28.2333 184.785 27.9907 184.585 27.852C184.386 27.7047 184.048 27.631 183.571 27.631ZM193.075 26.617V27.852H190.878V33H189.305V27.852H187.095V26.617H193.075Z" fill="#8D93A1"/>
<path d="M14.4644 17.5801H0C0.0990712 18.6665 0.297214 19.6542 0.594427 20.6418H9.21362L3.66563 26.1727C4.35913 26.9628 5.05263 27.6542 5.8452 28.3456L11.3932 22.8147V31.4073C12.3839 31.7036 13.4737 31.9011 14.4644 31.9999V17.5801Z" fill="#0450F2"/>
<path d="M17.5356 17.5801H32C31.8415 19.2443 31.5377 20.4463 31.4056 20.8394C30.4149 24.1974 28.2353 27.0616 25.4613 29.1357V24.9875C26.6502 23.7036 27.5418 22.3208 28.1362 20.7406H20.6068V21.9258V31.4073C19.6161 31.7036 18.6254 31.9011 17.5356 31.9999V17.5801Z" fill="#0450F2"/>
<path d="M16.0495 0C7.62848 0 0.693498 6.41979 0 14.6174H1.58514H3.07121H10.8978L12.582 11.5556H3.86378C4.16099 10.7655 4.4582 10.0741 4.85449 9.38277H13.87L15.5542 6.32102H7.43034C9.70898 4.3457 12.6811 3.06174 16.0495 3.06174C19.418 3.06174 22.3901 4.24694 24.6687 6.32102H16.5449L18.2291 9.38277H27.2446C27.6409 10.0741 28.0372 10.7655 28.2353 11.5556H19.418L21.1022 14.6174H28.9288H30.3158H32C31.3065 6.41979 24.3715 0 16.0495 0Z" fill="#0450F2"/>
</svg>
