<svg width="83" height="83" viewBox="0 0 83 83" fill="none" xmlns="http://www.w3.org/2000/svg">
<path d="M75.0268 3.03467L69.3673 12.3929C64.5014 10.8159 57.257 11.1246 52.6998 12.3929L47.2478 3.16695C38.2941 19.8914 40.8282 30.461 47.6602 35.7159C46.6149 36.3695 45.5385 37.088 44.4258 37.8765C15.949 15.1579 -9.68764 40.7452 7.13023 63.6065H7.25992C10.2765 67.9822 13.7521 70.69 17.5052 72.1062C22.8224 74.1112 28.2926 73.5354 33.6799 72.7728C39.0671 72.0103 44.3376 71.0532 49.3617 71.4111C54.3858 71.769 59.4099 73.0581 64.0086 78.0744C67.1444 81.493 71.5979 77.8125 67.8629 74.1657C62.1955 68.6306 56.1262 66.4908 50.1605 66.068C44.1949 65.6452 38.4757 66.8279 33.296 67.562C28.1163 68.296 23.5409 68.6228 19.6114 67.1392C17.7672 66.4441 15.9723 65.3495 14.2423 63.6117H72.6276C75.3874 53.8696 75.6805 43.562 72.542 37.0595C81.9703 32.1391 85.7624 20.5217 75.0268 3.03986V3.03467ZM57.519 28.1992C51.5119 31.0964 48.7859 28.7491 47.6187 23.904C53.5143 20.2468 57.0236 23.1829 57.519 28.1992ZM65.0175 28.1992C65.513 23.1829 69.0223 20.2442 74.9179 23.904C73.7507 28.7491 71.0221 31.099 65.0175 28.1992Z" fill="black"/>
</svg>
