<svg width="83" height="73" viewBox="0 0 83 73" fill="none" xmlns="http://www.w3.org/2000/svg">
<path d="M60.0036 69.6444C60.0036 71.1655 61.2367 72.3987 62.7579 72.3987C64.279 72.3987 65.5122 71.1655 65.5122 69.6444H60.0036ZM15.5415 54.9112C17.0627 54.9112 18.2958 53.6781 18.2958 52.1569C18.2958 50.6358 17.0627 49.4026 15.5415 49.4026V54.9112ZM47.7627 69.6444C47.7627 71.1655 48.9958 72.3987 50.517 72.3987C52.0382 72.3987 53.2713 71.1655 53.2713 69.6444H47.7627ZM53.2713 59.1517C53.2713 57.6305 52.0382 56.3974 50.517 56.3974C48.9958 56.3974 47.7627 57.6305 47.7627 59.1517H53.2713ZM73.2943 8.02697C71.86 7.51986 70.2866 8.27143 69.7794 9.70555C69.2722 11.1397 70.0241 12.7134 71.4579 13.2205L73.2943 8.02697ZM71.4579 30.2851C70.0241 30.7922 69.2722 32.3657 69.7794 33.7999C70.2866 35.2341 71.86 35.9857 73.2943 35.4785L71.4579 30.2851ZM62.6426 11.2866C61.2088 10.7795 59.6349 11.5311 59.1277 12.9652C58.6209 14.3993 59.3725 15.973 60.8063 16.4801L62.6426 11.2866ZM60.8063 27.0255C59.3725 27.5323 58.6209 29.1062 59.1277 30.5404C59.6349 31.9746 61.2088 32.7262 62.6426 32.219L60.8063 27.0255ZM36.5271 31.4777C29.3558 31.4777 23.5425 25.6643 23.5425 18.4932H18.0339C18.0339 28.7068 26.3135 36.9863 36.5271 36.9863V31.4777ZM23.5425 18.4932C23.5425 11.322 29.3558 5.50859 36.5271 5.50859V0C26.3135 0 18.0339 8.27969 18.0339 18.4932H23.5425ZM36.5271 5.50859C43.6982 5.50859 49.5117 11.322 49.5117 18.4932H55.0203C55.0203 8.27969 46.7405 0 36.5271 0V5.50859ZM49.5117 18.4932C49.5117 22.9636 47.2547 26.9079 43.8056 29.2479L46.8983 33.8062C51.7938 30.4849 55.0203 24.8663 55.0203 18.4932H49.5117ZM43.8056 29.2479C41.7308 30.6553 39.2291 31.4777 36.5271 31.4777V36.9863C40.3662 36.9863 43.9394 35.8133 46.8983 33.8062L43.8056 29.2479ZM65.5122 69.6444V60.9006H60.0036V69.6444H65.5122ZM43.5215 38.9099H31.8002V44.4185H43.5215V38.9099ZM15.9524 26.9559L13.8339 19.5412L8.53724 21.0545L10.6557 28.4692L15.9524 26.9559ZM0.213997 23.1883L6.35073 47.7351L11.6948 46.3993L5.55812 21.8523L0.213997 23.1883ZM6.35073 47.7351C7.40507 51.9527 11.1944 54.9112 15.5415 54.9112V49.4026C13.722 49.4026 12.1361 48.1644 11.6948 46.3993L6.35073 47.7351ZM7.05433 14.4274C2.46725 14.4274 -0.898542 18.7382 0.213997 23.1883L5.55812 21.8523C5.3148 20.8789 6.05098 19.936 7.05433 19.936V14.4274ZM13.8339 19.5412C12.969 16.5143 10.2024 14.4274 7.05433 14.4274V19.936C7.7429 19.936 8.34806 20.3925 8.53724 21.0545L13.8339 19.5412ZM31.8002 38.9099C24.4413 38.9099 17.974 34.0317 15.9524 26.9559L10.6557 28.4692C13.3531 37.9097 21.9819 44.4185 31.8002 44.4185V38.9099ZM65.5122 60.9006C65.5122 48.7554 55.6668 38.9099 43.5215 38.9099V44.4185C52.6244 44.4185 60.0036 51.7977 60.0036 60.9006H65.5122ZM53.2713 69.6444V59.1517H47.7627V69.6444H53.2713ZM74.8406 15.3535C76.538 17.0507 77.4914 19.3526 77.4914 21.7528H83C83 17.8916 81.4662 14.1886 78.736 11.4584L74.8406 15.3535ZM77.4914 21.7528C77.4914 24.1529 76.538 26.4546 74.8406 28.1521L78.736 32.047C81.4662 29.3167 83 25.6139 83 21.7528H77.4914ZM71.4579 13.2205C72.719 13.6663 73.8774 14.3901 74.8406 15.3535L78.736 11.4584C77.1857 9.90838 75.3222 8.74395 73.2943 8.02697L71.4579 13.2205ZM74.8406 28.1521C73.8774 29.1153 72.719 29.8393 71.4579 30.2851L73.2943 35.4785C75.3222 34.7616 77.1857 33.5973 78.736 32.047L74.8406 28.1521ZM62.8968 17.7983C63.9458 18.8471 64.5348 20.2695 64.5348 21.7528H70.0434C70.0434 18.8086 68.874 15.985 66.7921 13.9031L62.8968 17.7983ZM64.5348 21.7528C64.5348 23.236 63.9458 24.6585 62.8968 25.7072L64.8445 27.6547L66.7921 29.6024C68.874 27.5205 70.0434 24.6969 70.0434 21.7528H64.5348ZM60.8063 16.4801C61.5857 16.7556 62.3015 17.2029 62.8968 17.7983L66.7921 13.9031C65.6102 12.7212 64.1889 11.8333 62.6426 11.2866L60.8063 16.4801ZM62.8968 25.7072C62.3015 26.3026 61.5857 26.7497 60.8063 27.0255L62.6426 32.219C64.1889 31.6724 65.6102 30.7844 66.7921 29.6024L64.8445 27.6547L62.8968 25.7072Z" fill="black"/>
</svg>
