<svg width="65" height="55" viewBox="0 0 65 55" fill="none" xmlns="http://www.w3.org/2000/svg">
<path d="M8.1267 51.3655C8.06001 51.3656 7.99397 51.3524 7.93235 51.3269C7.87073 51.3014 7.81474 51.264 7.76759 51.2169C7.72044 51.1697 7.68305 51.1137 7.65755 51.0521C7.63206 50.9905 7.61896 50.9244 7.61901 50.8577V49.8422C7.61901 49.5615 7.84613 49.3344 8.1267 49.3344C8.40739 49.3344 8.63451 49.5615 8.63451 49.8422V50.8577C8.63451 51.1384 8.40739 51.3655 8.1267 51.3655ZM11.1734 51.1166C10.8928 51.1166 10.6656 50.8895 10.6656 50.6088V49.6071C10.6656 49.3264 10.8928 49.0993 11.1734 49.0993C11.4541 49.0993 11.6813 49.3264 11.6813 49.6071V50.6088C11.6813 50.8895 11.4541 51.1166 11.1734 51.1166ZM5.08008 51.1067C4.79938 51.1067 4.57227 50.8796 4.57227 50.599V49.5933C4.57227 49.3126 4.79938 49.0854 5.08008 49.0854C5.36077 49.0854 5.58789 49.3126 5.58789 49.5933V50.599C5.58792 50.6657 5.57481 50.7317 5.5493 50.7933C5.52379 50.855 5.48639 50.9109 5.43922 50.9581C5.39206 51.0052 5.33606 51.0426 5.27444 51.0681C5.21281 51.0936 5.14677 51.1067 5.08008 51.1067Z" fill="black"/>
<path d="M8.12651 49.3345C3.974 49.3345 2.80869 48.2893 2.68974 48.1702C2.59454 48.075 2.54106 47.9458 2.54106 47.8112C2.54106 47.6765 2.59454 47.5474 2.68974 47.4521C2.78331 47.3585 2.90971 47.3051 3.04205 47.3033C3.1744 47.3014 3.30224 47.3513 3.39839 47.4422C3.438 47.476 4.4813 48.319 8.12651 48.319C11.8268 48.319 12.8464 47.4501 12.8563 47.4422C13.0605 47.2578 13.3784 47.2677 13.5684 47.468C13.7567 47.6683 13.7578 47.9758 13.5634 48.1702C13.4443 48.2893 12.279 49.3345 8.12651 49.3345ZM8.12651 52.3812C3.974 52.3812 2.80869 51.3359 2.68974 51.2168C2.64259 51.1697 2.60519 51.1137 2.57967 51.0521C2.55415 50.9905 2.54102 50.9245 2.54102 50.8578C2.54102 50.7912 2.55415 50.7252 2.57967 50.6636C2.60519 50.602 2.64259 50.546 2.68974 50.4989C2.78342 50.4055 2.90978 50.3522 3.04206 50.3504C3.17433 50.3485 3.30213 50.3982 3.39839 50.489C3.438 50.5228 4.4813 51.3656 8.12651 51.3656C11.8268 51.3656 12.8464 50.4969 12.8563 50.489C13.0605 50.3045 13.3784 50.3144 13.5684 50.5148C13.7567 50.715 13.7578 51.0224 13.5634 51.2168C13.4443 51.3359 12.279 52.3812 8.12651 52.3812Z" fill="black"/>
<path d="M13.2046 48.3192C13.0787 48.3192 12.9532 48.2726 12.855 48.1803C12.8154 48.1466 11.7721 47.3036 8.12673 47.3036C4.42655 47.3036 3.40699 48.1725 3.39709 48.1803C3.19181 48.3638 2.8729 48.3539 2.68501 48.1546C2.49661 47.9542 2.4956 47.6467 2.68996 47.4524C2.80904 47.3333 3.97422 46.2881 8.12673 46.2881C12.2792 46.2881 13.4447 47.3333 13.5636 47.4524C13.6346 47.5234 13.683 47.6139 13.7026 47.7124C13.7221 47.8108 13.7121 47.9129 13.6737 48.0057C13.6352 48.0985 13.5702 48.1778 13.4867 48.2336C13.4032 48.2894 13.305 48.3192 13.2046 48.3192Z" fill="black"/>
<path d="M3.04883 51.3655C2.76813 51.3655 2.54102 51.1384 2.54102 50.8577V47.811C2.54102 47.5303 2.76813 47.3032 3.04883 47.3032C3.32952 47.3032 3.55664 47.5303 3.55664 47.811V50.8577C3.55664 51.1384 3.32952 51.3655 3.04883 51.3655ZM13.2044 51.3655C12.9237 51.3655 12.6966 51.1384 12.6966 50.8577V47.811C12.6966 47.5303 12.9237 47.3032 13.2044 47.3032C13.4851 47.3032 13.7123 47.5303 13.7123 47.811V50.8577C13.7123 51.1384 13.4851 51.3655 13.2044 51.3655ZM20.3133 51.3655C20.2466 51.3655 20.1806 51.3524 20.119 51.3269C20.0573 51.3014 20.0014 51.264 19.9542 51.2168C19.907 51.1696 19.8697 51.1136 19.8442 51.052C19.8187 50.9904 19.8056 50.9243 19.8056 50.8577V49.8422C19.8056 49.5615 20.0327 49.3343 20.3133 49.3343C20.594 49.3343 20.8211 49.5615 20.8211 49.8422V50.8577C20.8211 51.1384 20.594 51.3655 20.3133 51.3655ZM23.3601 51.1165C23.0794 51.1165 22.8522 50.8894 22.8522 50.6087V49.607C22.8522 49.3263 23.0794 49.0992 23.3601 49.0992C23.6408 49.0992 23.8679 49.3263 23.8679 49.607V50.6087C23.8679 50.8894 23.6408 51.1165 23.3601 51.1165ZM17.2667 51.1066C16.986 51.1066 16.7589 50.8795 16.7589 50.5989V49.5932C16.7589 49.3125 16.986 49.0854 17.2667 49.0854C17.5474 49.0854 17.7745 49.3125 17.7745 49.5932V50.5989C17.7745 50.6656 17.7614 50.7317 17.7359 50.7933C17.7104 50.8549 17.673 50.9109 17.6258 50.958C17.5787 51.0052 17.5227 51.0426 17.461 51.0681C17.3994 51.0936 17.3334 51.1067 17.2667 51.1066Z" fill="black"/>
<path d="M20.313 49.3345C16.1605 49.3345 14.9952 48.2893 14.8763 48.1702C14.7811 48.075 14.7276 47.9458 14.7276 47.8112C14.7276 47.6765 14.7811 47.5474 14.8763 47.4521C14.9698 47.3585 15.0962 47.3051 15.2286 47.3033C15.3609 47.3014 15.4888 47.3513 15.5849 47.4422C15.6245 47.476 16.6678 48.319 20.313 48.319C24.0133 48.319 25.0329 47.4501 25.0428 47.4422C25.2476 47.2578 25.566 47.2677 25.7549 47.468C25.9433 47.6683 25.9443 47.9758 25.7499 48.1702C25.631 48.2893 24.4655 49.3345 20.313 49.3345ZM20.313 52.3812C16.1605 52.3812 14.9952 51.3359 14.8763 51.2168C14.8291 51.1697 14.7917 51.1137 14.7662 51.0521C14.7407 50.9905 14.7275 50.9245 14.7275 50.8578C14.7275 50.7912 14.7407 50.7252 14.7662 50.6636C14.7917 50.602 14.8291 50.546 14.8763 50.4989C14.9699 50.4055 15.0963 50.3522 15.2286 50.3504C15.3609 50.3485 15.4887 50.3982 15.5849 50.489C15.6245 50.5228 16.6678 51.3656 20.313 51.3656C24.0133 51.3656 25.0329 50.4969 25.0428 50.489C25.2476 50.3045 25.566 50.3144 25.7549 50.5148C25.9433 50.715 25.9443 51.0224 25.7499 51.2168C25.631 51.3359 24.4655 52.3812 20.313 52.3812Z" fill="black"/>
<path d="M25.3911 48.3192C25.2652 48.3192 25.1398 48.2726 25.0415 48.1803C25.0019 48.1466 23.9586 47.3036 20.3133 47.3036C16.6131 47.3036 15.5935 48.1725 15.5836 48.1803C15.3783 48.3638 15.0604 48.3539 14.8715 48.1546C14.6831 47.9542 14.6821 47.6467 14.8765 47.4524C14.9956 47.3333 16.1607 46.2881 20.3133 46.2881C24.4658 46.2881 25.6312 47.3333 25.7501 47.4524C25.8211 47.5234 25.8695 47.6139 25.8891 47.7124C25.9087 47.8108 25.8986 47.9129 25.8602 48.0057C25.8218 48.0985 25.7567 48.1778 25.6732 48.2336C25.5897 48.2894 25.4915 48.3192 25.3911 48.3192Z" fill="black"/>
<path d="M15.2354 51.3655C14.9547 51.3655 14.7275 51.1384 14.7275 50.8577V47.811C14.7275 47.5303 14.9547 47.3032 15.2354 47.3032C15.516 47.3032 15.7432 47.5303 15.7432 47.811V50.8577C15.7432 51.1384 15.516 51.3655 15.2354 51.3655ZM25.391 51.3655C25.1103 51.3655 24.8832 51.1384 24.8832 50.8577V47.811C24.8832 47.5303 25.1103 47.3032 25.391 47.3032C25.6717 47.3032 25.8988 47.5303 25.8988 47.811V50.8577C25.8988 51.1384 25.6717 51.3655 25.391 51.3655ZM32.4998 51.3655C32.4331 51.3655 32.3671 51.3524 32.3055 51.3269C32.2439 51.3014 32.1879 51.264 32.1407 51.2168C32.0936 51.1696 32.0562 51.1136 32.0307 51.052C32.0052 50.9904 31.9921 50.9243 31.9921 50.8577V49.8422C31.9921 49.5615 32.2193 49.3343 32.4998 49.3343C32.7805 49.3343 33.0076 49.5615 33.0076 49.8422V50.8577C33.0076 51.1384 32.7805 51.3655 32.4998 51.3655ZM35.5466 51.1165C35.2659 51.1165 35.0388 50.8894 35.0388 50.6087V49.607C35.0388 49.3263 35.2659 49.0992 35.5466 49.0992C35.8273 49.0992 36.0544 49.3263 36.0544 49.607V50.6087C36.0544 50.8894 35.8273 51.1165 35.5466 51.1165ZM29.4532 51.1066C29.1725 51.1066 28.9454 50.8795 28.9454 50.5989V49.5932C28.9454 49.3125 29.1725 49.0854 29.4532 49.0854C29.7339 49.0854 29.961 49.3125 29.961 49.5932V50.5989C29.9611 50.6656 29.9479 50.7317 29.9224 50.7933C29.8969 50.8549 29.8595 50.9109 29.8124 50.958C29.7652 51.0052 29.7092 51.0426 29.6476 51.0681C29.5859 51.0936 29.5199 51.1067 29.4532 51.1066Z" fill="black"/>
<path d="M32.5 49.3345C28.3475 49.3345 27.1822 48.2893 27.0633 48.1702C26.9681 48.075 26.9146 47.9458 26.9146 47.8112C26.9146 47.6765 26.9681 47.5474 27.0633 47.4521C27.1568 47.3585 27.2832 47.3051 27.4156 47.3033C27.5479 47.3014 27.6758 47.3513 27.7719 47.4422C27.8115 47.476 28.8548 48.319 32.5 48.319C36.2003 48.319 37.2199 47.4501 37.2298 47.4422C37.4351 47.2578 37.7525 47.2677 37.9419 47.468C38.1303 47.6683 38.1313 47.9758 37.9369 48.1702C37.818 48.2893 36.6526 49.3345 32.5 49.3345ZM32.5 52.3812C28.3475 52.3812 27.1822 51.3359 27.0633 51.2168C27.0161 51.1697 26.9787 51.1137 26.9532 51.0521C26.9277 50.9905 26.9146 50.9245 26.9146 50.8578C26.9146 50.7912 26.9277 50.7252 26.9532 50.6636C26.9787 50.602 27.0161 50.546 27.0633 50.4989C27.157 50.4055 27.2833 50.3522 27.4156 50.3504C27.5479 50.3485 27.6757 50.3982 27.7719 50.489C27.8115 50.5228 28.8548 51.3656 32.5 51.3656C36.2003 51.3656 37.2199 50.4969 37.2298 50.489C37.4351 50.3045 37.7525 50.3144 37.9419 50.5148C38.1303 50.715 38.1313 51.0224 37.9369 51.2168C37.818 51.3359 36.6526 52.3812 32.5 52.3812Z" fill="black"/>
<path d="M37.5776 48.3192C37.4478 48.3194 37.3228 48.2697 37.2285 48.1803C37.1889 48.1466 36.1456 47.3036 32.4998 47.3036C28.7996 47.3036 27.78 48.1725 27.7701 48.1803C27.5649 48.3638 27.2459 48.3539 27.0581 48.1546C26.8697 47.9542 26.8686 47.6467 27.063 47.4524C27.1821 47.3333 28.3473 46.2881 32.4998 46.2881C36.6523 46.2881 37.8177 47.3333 37.9367 47.4524C38.0077 47.5234 38.056 47.6139 38.0756 47.7124C38.0952 47.8108 38.0851 47.9129 38.0467 48.0057C38.0083 48.0985 37.9432 48.1778 37.8597 48.2336C37.7762 48.2894 37.6781 48.3192 37.5776 48.3192Z" fill="black"/>
<path d="M27.4224 51.3655C27.1417 51.3655 26.9146 51.1384 26.9146 50.8577V47.811C26.9146 47.5303 27.1417 47.3032 27.4224 47.3032C27.7031 47.3032 27.9302 47.5303 27.9302 47.811V50.8577C27.9302 51.1384 27.7031 51.3655 27.4224 51.3655ZM37.578 51.3655C37.2973 51.3655 37.0702 51.1384 37.0702 50.8577V47.811C37.0702 47.5303 37.2973 47.3032 37.578 47.3032C37.8587 47.3032 38.0858 47.5303 38.0858 47.811V50.8577C38.0858 51.1384 37.8587 51.3655 37.578 51.3655Z" fill="black"/>
<path d="M44.6868 51.3655C44.6201 51.3656 44.554 51.3524 44.4924 51.3269C44.4308 51.3014 44.3748 51.264 44.3277 51.2169C44.2805 51.1697 44.2431 51.1137 44.2176 51.0521C44.1921 50.9905 44.179 50.9244 44.1791 50.8577V49.8422C44.1791 49.5615 44.4062 49.3344 44.6868 49.3344C44.9674 49.3344 45.1946 49.5615 45.1946 49.8422V50.8577C45.1946 51.1384 44.9674 51.3655 44.6868 51.3655ZM47.7335 51.1166C47.4528 51.1166 47.2257 50.8895 47.2257 50.6088V49.6071C47.2257 49.3264 47.4528 49.0993 47.7335 49.0993C48.0142 49.0993 48.2413 49.3264 48.2413 49.6071V50.6088C48.2413 50.8895 48.0142 51.1166 47.7335 51.1166ZM41.6401 51.1067C41.3594 51.1067 41.1323 50.8796 41.1323 50.599V49.5933C41.1323 49.3126 41.3594 49.0854 41.6401 49.0854C41.9208 49.0854 42.1479 49.3126 42.1479 49.5933V50.599C42.148 50.6657 42.1349 50.7317 42.1094 50.7933C42.0839 50.855 42.0464 50.9109 41.9993 50.9581C41.9521 51.0052 41.8961 51.0426 41.8345 51.0681C41.7729 51.0936 41.7068 51.1067 41.6401 51.1067Z" fill="black"/>
<path d="M44.6866 49.3345C40.5341 49.3345 39.3688 48.2893 39.2498 48.1702C39.1546 48.075 39.1011 47.9458 39.1011 47.8112C39.1011 47.6765 39.1546 47.5474 39.2498 47.4521C39.3433 47.3585 39.4696 47.3051 39.6019 47.3033C39.7341 47.3014 39.8619 47.3513 39.9579 47.4422C39.9976 47.476 41.0408 48.319 44.6866 48.319C48.3869 48.319 49.4064 47.4501 49.4163 47.4422C49.6197 47.2578 49.939 47.2677 50.1284 47.468C50.3168 47.6683 50.3178 47.9758 50.1235 48.1702C50.0045 48.2893 48.8391 49.3345 44.6866 49.3345ZM44.6866 52.3812C40.5341 52.3812 39.3688 51.3359 39.2498 51.2168C39.2026 51.1697 39.1652 51.1137 39.1397 51.0521C39.1142 50.9905 39.1011 50.9245 39.1011 50.8578C39.1011 50.7912 39.1142 50.7252 39.1397 50.6636C39.1652 50.602 39.2026 50.546 39.2498 50.4989C39.3434 50.4055 39.4697 50.3522 39.6019 50.3504C39.7341 50.3485 39.8618 50.3982 39.9579 50.489C39.9976 50.5228 41.0408 51.3656 44.6866 51.3656C48.3869 51.3656 49.4064 50.4969 49.4163 50.489C49.6197 50.3045 49.939 50.3144 50.1284 50.5148C50.3168 50.715 50.3178 51.0224 50.1235 51.2168C50.0045 51.3359 48.8391 52.3812 44.6866 52.3812Z" fill="black"/>
<path d="M49.7647 48.3192C49.6348 48.3194 49.5098 48.2697 49.4155 48.1803C49.3759 48.1466 48.3326 47.3036 44.6868 47.3036C40.9866 47.3036 39.9671 48.1725 39.9571 48.1803C39.7519 48.3638 39.4335 48.3539 39.2451 48.1546C39.0567 47.9542 39.0557 47.6467 39.25 47.4524C39.3691 47.3333 40.5343 46.2881 44.6868 46.2881C48.8393 46.2881 50.0047 47.3333 50.1237 47.4524C50.1947 47.5234 50.243 47.6139 50.2626 47.7124C50.2822 47.8108 50.2721 47.9129 50.2337 48.0057C50.1953 48.0985 50.1302 48.1778 50.0467 48.2336C49.9632 48.2894 49.8651 48.3192 49.7647 48.3192Z" fill="black"/>
<path d="M39.6089 51.3655C39.3282 51.3655 39.1011 51.1384 39.1011 50.8577V47.811C39.1011 47.5303 39.3282 47.3032 39.6089 47.3032C39.8896 47.3032 40.1167 47.5303 40.1167 47.811V50.8577C40.1167 51.1384 39.8896 51.3655 39.6089 51.3655ZM49.7645 51.3655C49.4838 51.3655 49.2567 51.1384 49.2567 50.8577V47.811C49.2567 47.5303 49.4838 47.3032 49.7645 47.3032C50.0452 47.3032 50.2723 47.5303 50.2723 47.811V50.8577C50.2723 51.1384 50.0452 51.3655 49.7645 51.3655Z" fill="black"/>
<path d="M56.8733 51.3655C56.8066 51.3656 56.7405 51.3524 56.6789 51.3269C56.6173 51.3014 56.5613 51.264 56.5142 51.2169C56.467 51.1697 56.4296 51.1137 56.4041 51.0521C56.3786 50.9905 56.3655 50.9244 56.3656 50.8577V49.8422C56.3656 49.5615 56.5927 49.3344 56.8733 49.3344C57.154 49.3344 57.3811 49.5615 57.3811 49.8422V50.8577C57.3811 51.1384 57.154 51.3655 56.8733 51.3655ZM59.92 51.1166C59.6393 51.1166 59.4122 50.8895 59.4122 50.6088V49.6071C59.4122 49.3264 59.6393 49.0993 59.92 49.0993C60.2007 49.0993 60.4278 49.3264 60.4278 49.6071V50.6088C60.4278 50.8895 60.2007 51.1166 59.92 51.1166ZM53.8267 51.1067C53.546 51.1067 53.3188 50.8796 53.3188 50.599V49.5933C53.3188 49.3126 53.546 49.0854 53.8267 49.0854C54.1074 49.0854 54.3345 49.3126 54.3345 49.5933V50.599C54.3345 50.6657 54.3214 50.7317 54.2959 50.7933C54.2704 50.855 54.233 50.9109 54.1858 50.9581C54.1386 51.0052 54.0826 51.0426 54.021 51.0681C53.9594 51.0936 53.8934 51.1067 53.8267 51.1067Z" fill="black"/>
<path d="M56.8733 49.3346C52.7208 49.3346 51.5555 48.2894 51.4365 48.1703C51.3416 48.076 51.2878 47.9481 51.2866 47.8144C51.2855 47.6806 51.3372 47.5518 51.4304 47.456C51.5237 47.3601 51.651 47.3049 51.7847 47.3023C51.9185 47.2998 52.0478 47.3501 52.1447 47.4423C52.1843 47.4761 53.2276 48.3191 56.8733 48.3191C60.5736 48.3191 61.5931 47.4502 61.603 47.4423C61.8064 47.2579 62.1267 47.2678 62.3151 47.4681C62.5035 47.6684 62.5045 47.9759 62.3102 48.1703C62.1912 48.2894 61.0258 49.3346 56.8733 49.3346ZM56.8733 52.3813C52.7208 52.3813 51.5555 51.336 51.4365 51.2169C51.3894 51.1698 51.352 51.1138 51.3264 51.0522C51.3009 50.9906 51.2878 50.9246 51.2878 50.8579C51.2878 50.7913 51.3009 50.7253 51.3264 50.6637C51.352 50.6021 51.3894 50.5461 51.4365 50.499C51.5301 50.4056 51.6564 50.3523 51.7886 50.3505C51.9208 50.3486 52.0485 50.3983 52.1447 50.4891C52.1843 50.5229 53.2276 51.3657 56.8733 51.3657C60.5736 51.3657 61.5931 50.497 61.603 50.4891C61.8064 50.3046 62.1267 50.3145 62.3151 50.5149C62.5035 50.7151 62.5045 51.0225 62.3102 51.2169C62.1912 51.336 61.0258 52.3813 56.8733 52.3813Z" fill="black"/>
<path d="M61.9512 48.3192C61.8213 48.3194 61.6963 48.2697 61.6021 48.1803C61.5625 48.1466 60.5192 47.3036 56.8733 47.3036C53.1731 47.3036 52.1536 48.1725 52.1437 48.1803C51.9384 48.3638 51.62 48.3539 51.4316 48.1546C51.2432 47.9542 51.2422 47.6467 51.4365 47.4524C51.5556 47.3333 52.7208 46.2881 56.8733 46.2881C61.0258 46.2881 62.1912 47.3333 62.3102 47.4524C62.3812 47.5234 62.4295 47.6139 62.4491 47.7124C62.4687 47.8108 62.4587 47.9129 62.4202 48.0057C62.3818 48.0985 62.3167 48.1778 62.2332 48.2336C62.1498 48.2894 62.0516 48.3192 61.9512 48.3192Z" fill="black"/>
<path d="M51.7959 51.3655C51.5152 51.3655 51.2881 51.1384 51.2881 50.8577V47.811C51.2881 47.5303 51.5152 47.3032 51.7959 47.3032C52.0766 47.3032 52.3037 47.5303 52.3037 47.811V50.8577C52.3037 51.1384 52.0766 51.3655 51.7959 51.3655ZM61.9515 51.3655C61.6708 51.3655 61.4437 51.1384 61.4437 50.8577V47.811C61.4437 47.5303 61.6708 47.3032 61.9515 47.3032C62.2322 47.3032 62.4593 47.5303 62.4593 47.811V50.8577C62.4593 51.1384 62.2322 51.3655 61.9515 51.3655Z" fill="black"/>
<path d="M14.22 45.2723C14.1533 45.2723 14.0872 45.2592 14.0256 45.2337C13.964 45.2082 13.908 45.1708 13.8609 45.1236C13.8137 45.0765 13.7764 45.0205 13.7509 44.9589C13.7254 44.8973 13.7122 44.8313 13.7123 44.7646V43.749C13.7123 43.4683 13.9394 43.2411 14.22 43.2411C14.5007 43.2411 14.7278 43.4683 14.7278 43.749V44.7646C14.7278 44.8313 14.7147 44.8973 14.6892 44.9589C14.6637 45.0205 14.6263 45.0765 14.5791 45.1237C14.5319 45.1708 14.4759 45.2082 14.4143 45.2337C14.3527 45.2592 14.2867 45.2723 14.22 45.2723ZM17.2667 45.0233C16.986 45.0233 16.7589 44.7963 16.7589 44.5156V43.5138C16.7589 43.2331 16.986 43.006 17.2667 43.006C17.5474 43.006 17.7745 43.2331 17.7745 43.5138V44.5156C17.7746 44.5823 17.7614 44.6484 17.7359 44.71C17.7104 44.7716 17.673 44.8276 17.6259 44.8747C17.5787 44.9219 17.5227 44.9593 17.4611 44.9848C17.3994 45.0103 17.3334 45.0234 17.2667 45.0233ZM11.1733 45.0135C10.8926 45.0135 10.6655 44.7864 10.6655 44.5057V43.5C10.6655 43.2193 10.8926 42.9922 11.1733 42.9922C11.454 42.9922 11.6812 43.2193 11.6812 43.5V44.5057C11.6812 44.7864 11.454 45.0135 11.1733 45.0135Z" fill="black"/>
<path d="M14.2198 43.2412C10.0673 43.2412 8.90195 42.196 8.783 42.0769C8.6878 41.9817 8.63432 41.8526 8.63432 41.7179C8.63432 41.5832 8.6878 41.4541 8.783 41.3589C8.87657 41.2653 9.00297 41.2119 9.13531 41.21C9.26766 41.2082 9.3955 41.258 9.49165 41.349C9.53126 41.3827 10.5746 42.2257 14.2198 42.2257C17.9201 42.2257 18.9396 41.3568 18.9495 41.349C19.1533 41.1655 19.4722 41.1744 19.6616 41.3747C19.85 41.5751 19.851 41.8826 19.6567 42.0769C19.5376 42.196 18.3723 43.2412 14.2198 43.2412ZM14.2198 46.288C10.0673 46.288 8.90195 45.2426 8.783 45.1235C8.73585 45.0764 8.69845 45.0204 8.67293 44.9589C8.64741 44.8973 8.63428 44.8313 8.63428 44.7646C8.63428 44.6979 8.64741 44.6319 8.67293 44.5703C8.69845 44.5087 8.73585 44.4528 8.783 44.4056C8.87657 44.312 9.00297 44.2586 9.13531 44.2568C9.26766 44.2549 9.3955 44.3048 9.49165 44.3957C9.53126 44.4295 10.5746 45.2723 14.2198 45.2723C17.9201 45.2723 18.9396 44.4036 18.9495 44.3957C19.1533 44.2113 19.4722 44.2212 19.6616 44.4215C19.85 44.6218 19.851 44.9293 19.6567 45.1235C19.5376 45.2426 18.3723 46.288 14.2198 46.288Z" fill="black"/>
<path d="M19.2979 42.2255C19.1719 42.2255 19.0465 42.1789 18.9482 42.0866C18.9086 42.0528 17.8653 41.2098 14.22 41.2098C10.5198 41.2098 9.50025 42.0787 9.49035 42.0866C9.28558 42.2691 8.96667 42.2591 8.77827 42.0608C8.58987 41.8605 8.58886 41.553 8.78322 41.3586C8.9023 41.2395 10.0675 40.1943 14.22 40.1943C18.3725 40.1943 19.5379 41.2395 19.6569 41.3586C19.7279 41.4296 19.7762 41.5201 19.7958 41.6186C19.8154 41.7171 19.8053 41.8192 19.7669 41.912C19.7285 42.0047 19.6634 42.084 19.5799 42.1398C19.4964 42.1956 19.3983 42.2254 19.2979 42.2255Z" fill="black"/>
<path d="M9.14209 45.2722C8.8614 45.2722 8.63428 45.0451 8.63428 44.7645V41.7178C8.63428 41.4371 8.8614 41.21 9.14209 41.21C9.42278 41.21 9.6499 41.4371 9.6499 41.7178V44.7645C9.64994 44.8312 9.63682 44.8973 9.61131 44.9589C9.5858 45.0205 9.5484 45.0765 9.50123 45.1236C9.45407 45.1708 9.39808 45.2082 9.33645 45.2337C9.27483 45.2592 9.20878 45.2723 9.14209 45.2722ZM19.2977 45.2722C19.017 45.2722 18.7899 45.0451 18.7899 44.7645V41.7178C18.7899 41.4371 19.017 41.21 19.2977 41.21C19.5784 41.21 19.8055 41.4371 19.8055 41.7178V44.7645C19.8055 44.8312 19.7924 44.8973 19.7669 44.9589C19.7414 45.0205 19.704 45.0765 19.6568 45.1236C19.6097 45.1708 19.5537 45.2082 19.4921 45.2337C19.4304 45.2592 19.3644 45.2723 19.2977 45.2722Z" fill="black"/>
<path d="M26.4065 45.2723C26.3398 45.2723 26.2738 45.2592 26.2122 45.2337C26.1506 45.2082 26.0946 45.1708 26.0474 45.1236C26.0003 45.0765 25.9629 45.0205 25.9374 44.9589C25.9119 44.8973 25.8988 44.8313 25.8988 44.7646V43.749C25.8988 43.4683 26.1259 43.2411 26.4065 43.2411C26.6872 43.2411 26.9143 43.4683 26.9143 43.749V44.7646C26.9143 44.8313 26.9012 44.8973 26.8757 44.9589C26.8502 45.0205 26.8128 45.0765 26.7656 45.1237C26.7185 45.1708 26.6625 45.2082 26.6008 45.2337C26.5392 45.2592 26.4732 45.2723 26.4065 45.2723ZM29.4532 45.0233C29.1725 45.0233 28.9454 44.7963 28.9454 44.5156V43.5138C28.9454 43.2331 29.1725 43.006 29.4532 43.006C29.7339 43.006 29.961 43.2331 29.961 43.5138V44.5156C29.9611 44.5823 29.948 44.6484 29.9225 44.71C29.8969 44.7716 29.8595 44.8276 29.8124 44.8747C29.7652 44.9219 29.7092 44.9593 29.6476 44.9848C29.586 45.0103 29.5199 45.0234 29.4532 45.0233ZM23.3599 45.0135C23.0792 45.0135 22.8521 44.7864 22.8521 44.5057V43.5C22.8521 43.2193 23.0792 42.9922 23.3599 42.9922C23.6406 42.9922 23.8677 43.2193 23.8677 43.5V44.5057C23.8677 44.7864 23.6406 45.0135 23.3599 45.0135Z" fill="black"/>
<path d="M26.4068 43.2412C22.2543 43.2412 21.089 42.196 20.97 42.0769C20.8748 41.9817 20.8213 41.8526 20.8213 41.7179C20.8213 41.5832 20.8748 41.4541 20.97 41.3589C21.0636 41.2653 21.19 41.2119 21.3223 41.21C21.4547 41.2082 21.5825 41.258 21.6787 41.349C21.7183 41.3827 22.7616 42.2257 26.4068 42.2257C30.1071 42.2257 31.1266 41.3568 31.1365 41.349C31.3408 41.1655 31.6602 41.1744 31.8486 41.3747C32.037 41.5751 32.038 41.8826 31.8437 42.0769C31.7247 42.196 30.5593 43.2412 26.4068 43.2412ZM26.4068 46.288C22.2543 46.288 21.089 45.2426 20.97 45.1235C20.9229 45.0764 20.8855 45.0204 20.8599 44.9589C20.8344 44.8973 20.8213 44.8313 20.8213 44.7646C20.8213 44.6979 20.8344 44.6319 20.8599 44.5703C20.8855 44.5087 20.9229 44.4528 20.97 44.4056C21.0636 44.312 21.19 44.2586 21.3223 44.2568C21.4547 44.2549 21.5825 44.3048 21.6787 44.3957C21.7183 44.4295 22.7616 45.2723 26.4068 45.2723C30.1071 45.2723 31.1266 44.4036 31.1365 44.3957C31.3408 44.2113 31.6602 44.2212 31.8486 44.4215C32.037 44.6218 32.038 44.9293 31.8437 45.1235C31.7247 45.2426 30.5593 46.288 26.4068 46.288Z" fill="black"/>
<path d="M31.4844 42.2255C31.3584 42.2255 31.233 42.1789 31.1348 42.0866C31.0951 42.0528 30.0518 41.2098 26.4065 41.2098C22.7063 41.2098 21.6868 42.0787 21.6769 42.0866C21.4711 42.2691 21.1532 42.2591 20.9648 42.0608C20.7764 41.8605 20.7754 41.553 20.9697 41.3586C21.0888 41.2395 22.254 40.1943 26.4065 40.1943C30.559 40.1943 31.7245 41.2395 31.8434 41.3586C31.9144 41.4296 31.9628 41.5201 31.9823 41.6186C32.0019 41.7171 31.9919 41.8192 31.9534 41.912C31.915 42.0047 31.8499 42.084 31.7665 42.1398C31.683 42.1956 31.5848 42.2254 31.4844 42.2255Z" fill="black"/>
<path d="M21.3291 45.2722C21.0484 45.2722 20.8213 45.0451 20.8213 44.7645V41.7178C20.8213 41.4371 21.0484 41.21 21.3291 41.21C21.6098 41.21 21.8369 41.4371 21.8369 41.7178V44.7645C21.8369 44.8312 21.8238 44.8973 21.7983 44.9589C21.7728 45.0205 21.7354 45.0765 21.6882 45.1236C21.6411 45.1708 21.5851 45.2082 21.5235 45.2337C21.4618 45.2592 21.3958 45.2723 21.3291 45.2722ZM31.4847 45.2722C31.204 45.2722 30.9769 45.0451 30.9769 44.7645V41.7178C30.9769 41.4371 31.204 41.21 31.4847 41.21C31.7654 41.21 31.9925 41.4371 31.9925 41.7178V44.7645C31.9926 44.8312 31.9795 44.8973 31.9539 44.9589C31.9284 45.0205 31.891 45.0765 31.8439 45.1236C31.7967 45.1708 31.7407 45.2082 31.6791 45.2337C31.6175 45.2592 31.5514 45.2723 31.4847 45.2722Z" fill="black"/>
<path d="M38.5936 45.2723C38.3129 45.2723 38.0858 45.0451 38.0858 44.7646V43.749C38.0858 43.4683 38.3129 43.2411 38.5936 43.2411C38.6603 43.2411 38.7264 43.2542 38.788 43.2797C38.8496 43.3052 38.9056 43.3426 38.9527 43.3898C38.9999 43.437 39.0373 43.493 39.0628 43.5546C39.0883 43.6162 39.1014 43.6823 39.1013 43.749V44.7646C39.1013 44.8313 39.0882 44.8973 39.0627 44.9589C39.0372 45.0205 38.9998 45.0765 38.9527 45.1236C38.9055 45.1708 38.8496 45.2082 38.7879 45.2337C38.7263 45.2592 38.6603 45.2723 38.5936 45.2723ZM41.6402 45.0233C41.3596 45.0233 41.1324 44.7963 41.1324 44.5156V43.5138C41.1324 43.2331 41.3596 43.006 41.6402 43.006C41.9209 43.006 42.1481 43.2331 42.1481 43.5138V44.5156C42.1481 44.5823 42.135 44.6484 42.1095 44.71C42.084 44.7716 42.0466 44.8276 41.9994 44.8747C41.9522 44.9219 41.8962 44.9593 41.8346 44.9848C41.773 45.0103 41.7069 45.0234 41.6402 45.0233ZM35.5469 45.0135C35.2662 45.0135 35.0391 44.7864 35.0391 44.5057V43.5C35.0391 43.2193 35.2662 42.9922 35.5469 42.9922C35.8276 42.9922 36.0547 43.2193 36.0547 43.5V44.5057C36.0547 44.7864 35.8276 45.0135 35.5469 45.0135Z" fill="black"/>
<path d="M38.5936 43.2413C34.4411 43.2413 33.2757 42.1961 33.1567 42.077C33.0618 41.9828 33.008 41.8549 33.0069 41.7211C33.0057 41.5874 33.0574 41.4586 33.1507 41.3627C33.2439 41.2668 33.3712 41.2116 33.505 41.2091C33.6387 41.2065 33.768 41.2568 33.8649 41.3491C33.9045 41.3828 34.9478 42.2258 38.5936 42.2258C42.2938 42.2258 43.3134 41.3569 43.3233 41.3491C43.5275 41.1656 43.8459 41.1745 44.0353 41.3749C44.2237 41.5752 44.2248 41.8827 44.0304 42.077C43.9114 42.1961 42.7461 43.2413 38.5936 43.2413ZM38.5936 46.2881C34.4411 46.2881 33.2757 45.2427 33.1567 45.1236C33.1096 45.0765 33.0722 45.0206 33.0467 44.959C33.0211 44.8974 33.008 44.8314 33.008 44.7647C33.008 44.698 33.0211 44.632 33.0467 44.5704C33.0722 44.5088 33.1096 44.4529 33.1567 44.4057C33.2502 44.3121 33.3765 44.2587 33.5088 44.2569C33.6411 44.255 33.7688 44.3049 33.8649 44.3958C33.9045 44.4296 34.9478 45.2724 38.5936 45.2724C42.2938 45.2724 43.3134 44.4037 43.3233 44.3958C43.5275 44.2114 43.8459 44.2213 44.0353 44.4216C44.2237 44.6219 44.2248 44.9294 44.0304 45.1236C43.9114 45.2427 42.7461 46.2881 38.5936 46.2881Z" fill="black"/>
<path d="M43.6714 42.2255C43.5415 42.2257 43.4165 42.1759 43.3223 42.0866C43.2827 42.0528 42.2394 41.2098 38.5937 41.2098C34.8933 41.2098 33.8738 42.0787 33.8639 42.0866C33.6586 42.2691 33.3397 42.2591 33.1518 42.0608C32.9634 41.8605 32.9624 41.553 33.1568 41.3586C33.2758 41.2395 34.4411 40.1943 38.5937 40.1943C42.7462 40.1943 43.9115 41.2395 44.0304 41.3586C44.1014 41.4296 44.1498 41.5201 44.1693 41.6186C44.1889 41.7171 44.1789 41.8192 44.1405 41.912C44.102 42.0047 44.037 42.084 43.9535 42.1398C43.87 42.1956 43.7718 42.2254 43.6714 42.2255Z" fill="black"/>
<path d="M33.5156 45.2722C33.2349 45.2722 33.0078 45.0451 33.0078 44.7645V41.7178C33.0078 41.4371 33.2349 41.21 33.5156 41.21C33.7963 41.21 34.0234 41.4371 34.0234 41.7178V44.7645C34.0235 44.8312 34.0104 44.8973 33.9848 44.9589C33.9593 45.0205 33.9219 45.0765 33.8748 45.1236C33.8276 45.1708 33.7716 45.2082 33.71 45.2337C33.6484 45.2592 33.5823 45.2723 33.5156 45.2722ZM43.6712 45.2722C43.3905 45.2722 43.1634 45.0451 43.1634 44.7645V41.7178C43.1634 41.4371 43.3905 41.21 43.6712 41.21C43.9519 41.21 44.1791 41.4371 44.1791 41.7178V44.7645C44.1791 44.8312 44.166 44.8973 44.1405 44.9589C44.115 45.0205 44.0775 45.0765 44.0304 45.1236C43.9832 45.1708 43.9272 45.2082 43.8656 45.2337C43.804 45.2592 43.7379 45.2723 43.6712 45.2722Z" fill="black"/>
<path d="M20.3132 39.179C20.2465 39.179 20.1805 39.1659 20.1189 39.1404C20.0573 39.1149 20.0013 39.0775 19.9541 39.0303C19.907 38.9832 19.8696 38.9272 19.8441 38.8656C19.8186 38.8039 19.8055 38.7379 19.8055 38.6712V37.6557C19.8055 37.375 20.0327 37.1479 20.3132 37.1479C20.5939 37.1479 20.821 37.375 20.821 37.6557V38.6712C20.821 38.9519 20.5939 39.179 20.3132 39.179ZM23.36 38.93C23.0793 38.93 22.8522 38.7029 22.8522 38.4222V37.4206C22.8522 37.1399 23.0793 36.9128 23.36 36.9128C23.6407 36.9128 23.8678 37.1399 23.8678 37.4206V38.4222C23.8678 38.7029 23.6407 38.93 23.36 38.93ZM17.2666 38.9201C16.9859 38.9201 16.7588 38.693 16.7588 38.4125V37.4067C16.7588 37.126 16.9859 36.8989 17.2666 36.8989C17.5473 36.8989 17.7744 37.126 17.7744 37.4067V38.4125C17.7744 38.4792 17.7613 38.5452 17.7358 38.6068C17.7103 38.6684 17.6729 38.7244 17.6257 38.7716C17.5786 38.8187 17.5226 38.8561 17.461 38.8816C17.3993 38.9071 17.3333 38.9202 17.2666 38.9201Z" fill="black"/>
<path d="M20.313 37.1479C16.1605 37.1479 14.9952 36.1027 14.8763 35.9837C14.7811 35.8884 14.7276 35.7593 14.7276 35.6246C14.7276 35.49 14.7811 35.3608 14.8763 35.2656C14.9698 35.172 15.0962 35.1186 15.2286 35.1167C15.3609 35.1149 15.4888 35.1648 15.5849 35.2557C15.6245 35.2895 16.6678 36.1325 20.313 36.1325C24.0133 36.1325 25.0329 35.2636 25.0428 35.2557C25.2476 35.0712 25.566 35.0812 25.7549 35.2815C25.9433 35.4818 25.9443 35.7893 25.7499 35.9837C25.631 36.1027 24.4655 37.1479 20.313 37.1479ZM20.313 40.1947C16.1605 40.1947 14.9952 39.1494 14.8763 39.0303C14.8291 38.9831 14.7917 38.9272 14.7662 38.8656C14.7407 38.804 14.7275 38.738 14.7275 38.6713C14.7275 38.6047 14.7407 38.5386 14.7662 38.477C14.7917 38.4155 14.8291 38.3595 14.8763 38.3124C14.9698 38.2188 15.0962 38.1653 15.2286 38.1635C15.3609 38.1616 15.4888 38.2115 15.5849 38.3025C15.6245 38.3362 16.6678 39.1791 20.313 39.1791C24.0133 39.1791 25.0329 38.3103 25.0428 38.3025C25.2476 38.118 25.566 38.1279 25.7549 38.3282C25.9433 38.5284 25.9443 38.8359 25.7499 39.0303C25.631 39.1494 24.4655 40.1947 20.313 40.1947Z" fill="black"/>
<path d="M25.3911 36.1322C25.2652 36.1322 25.1398 36.0856 25.0415 35.9933C25.0019 35.9595 23.9586 35.1166 20.3133 35.1166C16.6131 35.1166 15.5935 35.9854 15.5836 35.9933C15.3783 36.1759 15.0604 36.1669 14.8715 35.9675C14.6831 35.7672 14.6821 35.4597 14.8765 35.2654C14.9956 35.1463 16.1607 34.1011 20.3133 34.1011C24.4658 34.1011 25.6312 35.1463 25.7501 35.2654C25.8211 35.3364 25.8695 35.4269 25.8891 35.5253C25.9087 35.6238 25.8986 35.7259 25.8602 35.8187C25.8218 35.9115 25.7567 35.9908 25.6732 36.0466C25.5897 36.1024 25.4915 36.1322 25.3911 36.1322Z" fill="black"/>
<path d="M15.2354 39.1789C14.9547 39.1789 14.7275 38.9518 14.7275 38.6711V35.6245C14.7275 35.3438 14.9547 35.1167 15.2354 35.1167C15.516 35.1167 15.7432 35.3438 15.7432 35.6245V38.6711C15.7432 38.9518 15.516 39.1789 15.2354 39.1789ZM25.391 39.1789C25.1103 39.1789 24.8832 38.9518 24.8832 38.6711V35.6245C24.8832 35.3438 25.1103 35.1167 25.391 35.1167C25.6717 35.1167 25.8988 35.3438 25.8988 35.6245V38.6711C25.8988 38.9518 25.6717 39.1789 25.391 39.1789Z" fill="black"/>
<path d="M32.5002 39.179C32.4335 39.179 32.3675 39.1659 32.3059 39.1404C32.2443 39.1149 32.1883 39.0775 32.1411 39.0303C32.094 38.9832 32.0566 38.9272 32.0311 38.8656C32.0056 38.8039 31.9925 38.7379 31.9925 38.6712V37.6557C31.9925 37.375 32.2197 37.1479 32.5002 37.1479C32.7809 37.1479 33.008 37.375 33.008 37.6557V38.6712C33.008 38.9519 32.7809 39.179 32.5002 39.179ZM35.547 38.93C35.2663 38.93 35.0392 38.7029 35.0392 38.4222V37.4206C35.0392 37.1399 35.2663 36.9128 35.547 36.9128C35.8277 36.9128 36.0548 37.1399 36.0548 37.4206V38.4222C36.0548 38.7029 35.8277 38.93 35.547 38.93ZM29.4536 38.9201C29.1729 38.9201 28.9458 38.693 28.9458 38.4125V37.4067C28.9458 37.126 29.1729 36.8989 29.4536 36.8989C29.7343 36.8989 29.9614 37.126 29.9614 37.4067V38.4125C29.9615 38.4792 29.9483 38.5452 29.9228 38.6068C29.8973 38.6684 29.8599 38.7244 29.8128 38.7716C29.7656 38.8187 29.7096 38.8561 29.648 38.8816C29.5864 38.9071 29.5203 38.9202 29.4536 38.9201Z" fill="black"/>
<path d="M32.5 37.1479C28.3475 37.1479 27.1822 36.1027 27.0633 35.9837C26.9681 35.8884 26.9146 35.7593 26.9146 35.6246C26.9146 35.49 26.9681 35.3608 27.0633 35.2656C27.1568 35.172 27.2832 35.1186 27.4156 35.1167C27.5479 35.1149 27.6758 35.1648 27.7719 35.2557C27.8115 35.2895 28.8548 36.1325 32.5 36.1325C36.2003 36.1325 37.2199 35.2636 37.2298 35.2557C37.4351 35.0712 37.7525 35.0812 37.9419 35.2815C38.1303 35.4818 38.1313 35.7893 37.9369 35.9837C37.818 36.1027 36.6526 37.1479 32.5 37.1479ZM32.5 40.1947C28.3475 40.1947 27.1822 39.1494 27.0633 39.0303C27.0161 38.9831 26.9787 38.9272 26.9532 38.8656C26.9277 38.804 26.9146 38.738 26.9146 38.6713C26.9146 38.6047 26.9277 38.5386 26.9532 38.477C26.9787 38.4155 27.0161 38.3595 27.0633 38.3124C27.1568 38.2188 27.2832 38.1653 27.4156 38.1635C27.5479 38.1616 27.6758 38.2115 27.7719 38.3025C27.8115 38.3362 28.8548 39.1791 32.5 39.1791C36.2003 39.1791 37.2199 38.3103 37.2298 38.3025C37.4351 38.118 37.7525 38.1279 37.9419 38.3282C38.1303 38.5284 38.1313 38.8359 37.9369 39.0303C37.818 39.1494 36.6526 40.1947 32.5 40.1947Z" fill="black"/>
<path d="M37.5776 36.1322C37.4478 36.1324 37.3228 36.0827 37.2285 35.9933C37.1889 35.9595 36.1456 35.1166 32.4998 35.1166C28.7996 35.1166 27.78 35.9854 27.7701 35.9933C27.5649 36.1759 27.2459 36.1669 27.0581 35.9675C26.8697 35.7672 26.8686 35.4597 27.063 35.2654C27.1821 35.1463 28.3473 34.1011 32.4998 34.1011C36.6523 34.1011 37.8177 35.1463 37.9367 35.2654C38.0077 35.3364 38.056 35.4269 38.0756 35.5253C38.0952 35.6238 38.0851 35.7259 38.0467 35.8187C38.0083 35.9115 37.9432 35.9908 37.8597 36.0466C37.7762 36.1024 37.6781 36.1322 37.5776 36.1322Z" fill="black"/>
<path d="M27.4224 39.1789C27.1417 39.1789 26.9146 38.9518 26.9146 38.6711V35.6245C26.9146 35.3438 27.1417 35.1167 27.4224 35.1167C27.7031 35.1167 27.9302 35.3438 27.9302 35.6245V38.6711C27.9302 38.9518 27.7031 39.1789 27.4224 39.1789ZM37.578 39.1789C37.2973 39.1789 37.0702 38.9518 37.0702 38.6711V35.6245C37.0702 35.3438 37.2973 35.1167 37.578 35.1167C37.8587 35.1167 38.0858 35.3438 38.0858 35.6245V38.6711C38.0858 38.9518 37.8587 39.1789 37.578 39.1789Z" fill="black"/>
<path d="M44.6868 39.179C44.6201 39.179 44.554 39.1659 44.4924 39.1404C44.4308 39.1149 44.3748 39.0775 44.3277 39.0303C44.2805 38.9832 44.2431 38.9272 44.2176 38.8656C44.1921 38.8039 44.179 38.7379 44.1791 38.6712V37.6557C44.1791 37.375 44.4062 37.1479 44.6868 37.1479C44.9674 37.1479 45.1946 37.375 45.1946 37.6557V38.6712C45.1946 38.9519 44.9674 39.179 44.6868 39.179ZM47.7335 38.93C47.4528 38.93 47.2257 38.7029 47.2257 38.4222V37.4206C47.2257 37.1399 47.4528 36.9128 47.7335 36.9128C48.0142 36.9128 48.2413 37.1399 48.2413 37.4206V38.4222C48.2413 38.7029 48.0142 38.93 47.7335 38.93ZM41.6401 38.9201C41.3594 38.9201 41.1323 38.693 41.1323 38.4125V37.4067C41.1323 37.126 41.3594 36.8989 41.6401 36.8989C41.9208 36.8989 42.1479 37.126 42.1479 37.4067V38.4125C42.148 38.4792 42.1349 38.5452 42.1094 38.6068C42.0839 38.6684 42.0464 38.7244 41.9993 38.7716C41.9521 38.8187 41.8961 38.8561 41.8345 38.8816C41.7729 38.9071 41.7068 38.9202 41.6401 38.9201Z" fill="black"/>
<path d="M44.6866 37.148C40.5341 37.148 39.3688 36.1027 39.2498 35.9837C39.1546 35.8884 39.1011 35.7593 39.1011 35.6246C39.1011 35.49 39.1546 35.3608 39.2498 35.2656C39.3433 35.172 39.4696 35.1186 39.6019 35.1167C39.7341 35.1149 39.8619 35.1648 39.9579 35.2557C39.9976 35.2895 41.0408 36.1325 44.6866 36.1325C48.3869 36.1325 49.4064 35.2636 49.4163 35.2557C49.6197 35.0713 49.939 35.0812 50.1284 35.2815C50.3168 35.4818 50.3178 35.7893 50.1235 35.9837C50.0045 36.1027 48.8391 37.148 44.6866 37.148ZM44.6866 40.1947C40.5341 40.1947 39.3688 39.1494 39.2498 39.0303C39.2026 38.9832 39.1652 38.9272 39.1397 38.8656C39.1142 38.804 39.1011 38.738 39.1011 38.6713C39.1011 38.6047 39.1142 38.5386 39.1397 38.4771C39.1652 38.4155 39.2026 38.3595 39.2498 38.3124C39.3433 38.2188 39.4696 38.1653 39.6019 38.1635C39.7341 38.1616 39.8619 38.2115 39.9579 38.3025C39.9976 38.3362 41.0408 39.1791 44.6866 39.1791C48.3869 39.1791 49.4064 38.3103 49.4163 38.3025C49.6197 38.118 49.939 38.1279 50.1284 38.3282C50.3168 38.5284 50.3178 38.8359 50.1235 39.0303C50.0045 39.1494 48.8391 40.1947 44.6866 40.1947Z" fill="black"/>
<path d="M49.7647 36.1322C49.6348 36.1324 49.5098 36.0827 49.4155 35.9933C49.3759 35.9595 48.3326 35.1166 44.6868 35.1166C40.9866 35.1166 39.9671 35.9854 39.9571 35.9933C39.7519 36.1759 39.4335 36.1669 39.2451 35.9675C39.0567 35.7672 39.0557 35.4597 39.25 35.2654C39.3691 35.1463 40.5343 34.1011 44.6868 34.1011C48.8393 34.1011 50.0047 35.1463 50.1237 35.2654C50.1947 35.3364 50.243 35.4269 50.2626 35.5253C50.2822 35.6238 50.2721 35.7259 50.2337 35.8187C50.1953 35.9115 50.1302 35.9908 50.0467 36.0466C49.9632 36.1024 49.8651 36.1322 49.7647 36.1322Z" fill="black"/>
<path d="M39.6089 39.1789C39.3282 39.1789 39.1011 38.9518 39.1011 38.6711V35.6245C39.1011 35.3438 39.3282 35.1167 39.6089 35.1167C39.8896 35.1167 40.1167 35.3438 40.1167 35.6245V38.6711C40.1167 38.9518 39.8896 39.1789 39.6089 39.1789ZM49.7645 39.1789C49.4838 39.1789 49.2567 38.9518 49.2567 38.6711V35.6245C49.2567 35.3438 49.4838 35.1167 49.7645 35.1167C50.0452 35.1167 50.2723 35.3438 50.2723 35.6245V38.6711C50.2723 38.9518 50.0452 39.1789 49.7645 39.1789Z" fill="black"/>
<path d="M26.4065 33.0857C26.3398 33.0858 26.2738 33.0727 26.2122 33.0472C26.1506 33.0217 26.0946 32.9843 26.0474 32.9371C26.0003 32.89 25.9629 32.834 25.9374 32.7724C25.9119 32.7108 25.8988 32.6447 25.8988 32.5781V31.5624C25.8988 31.2817 26.1259 31.0546 26.4065 31.0546C26.6872 31.0546 26.9143 31.2817 26.9143 31.5624V32.5781C26.9143 32.6447 26.9012 32.7108 26.8757 32.7724C26.8502 32.834 26.8128 32.89 26.7656 32.9372C26.7185 32.9843 26.6625 33.0217 26.6008 33.0472C26.5392 33.0727 26.4732 33.0858 26.4065 33.0857ZM29.4532 32.8368C29.1725 32.8368 28.9454 32.6098 28.9454 32.3291V31.3273C28.9454 31.0466 29.1725 30.8195 29.4532 30.8195C29.7339 30.8195 29.961 31.0466 29.961 31.3273V32.3291C29.9611 32.3958 29.948 32.4618 29.9225 32.5235C29.8969 32.5851 29.8595 32.6411 29.8124 32.6882C29.7652 32.7354 29.7092 32.7728 29.6476 32.7982C29.586 32.8237 29.5199 32.8368 29.4532 32.8368ZM23.3599 32.827C23.0792 32.827 22.8521 32.5999 22.8521 32.3192V31.3135C22.8521 31.0328 23.0792 30.8057 23.3599 30.8057C23.6406 30.8057 23.8677 31.0328 23.8677 31.3135V32.3192C23.8677 32.5999 23.6406 32.827 23.3599 32.827Z" fill="black"/>
<path d="M26.4068 31.0542C22.2543 31.0542 21.089 30.009 20.97 29.8899C20.8748 29.7947 20.8213 29.6655 20.8213 29.5309C20.8213 29.3962 20.8748 29.2671 20.97 29.1719C21.0636 29.0783 21.19 29.0248 21.3223 29.023C21.4547 29.0211 21.5825 29.071 21.6787 29.162C21.7183 29.1957 22.7616 30.0387 26.4068 30.0387C30.1071 30.0387 31.1266 29.1698 31.1365 29.162C31.3408 28.9775 31.6602 28.9874 31.8486 29.1877C32.037 29.3881 32.038 29.6955 31.8437 29.8899C31.7247 30.009 30.5593 31.0542 26.4068 31.0542ZM26.4068 34.1009C22.2543 34.1009 21.089 33.0556 20.97 32.9365C20.9229 32.8894 20.8855 32.8334 20.8599 32.7719C20.8344 32.7103 20.8213 32.6442 20.8213 32.5776C20.8213 32.5109 20.8344 32.4449 20.8599 32.3833C20.8855 32.3217 20.9229 32.2657 20.97 32.2186C21.0636 32.125 21.19 32.0716 21.3223 32.0697C21.4547 32.0679 21.5825 32.1178 21.6787 32.2087C21.7183 32.2425 22.7616 33.0853 26.4068 33.0853C30.1071 33.0853 31.1266 32.2166 31.1365 32.2087C31.3408 32.0243 31.6602 32.0342 31.8486 32.2345C32.037 32.4348 32.038 32.7423 31.8437 32.9365C31.7247 33.0556 30.5593 34.1009 26.4068 34.1009Z" fill="black"/>
<path d="M31.4844 30.0389C31.3584 30.0389 31.233 29.9923 31.1348 29.9C31.0951 29.8663 30.0518 29.0233 26.4065 29.0233C22.7063 29.0233 21.6868 29.8922 21.6769 29.9C21.4711 30.0826 21.1532 30.0746 20.9648 29.8743C20.7764 29.6739 20.7754 29.3665 20.9697 29.1721C21.0888 29.053 22.254 28.0078 26.4065 28.0078C30.559 28.0078 31.7245 29.053 31.8434 29.1721C31.9144 29.2431 31.9628 29.3336 31.9823 29.4321C32.0019 29.5306 31.9919 29.6327 31.9534 29.7254C31.915 29.8182 31.8499 29.8975 31.7665 29.9533C31.683 30.0091 31.5848 30.0389 31.4844 30.0389Z" fill="black"/>
<path d="M21.3291 33.0857C21.0484 33.0857 20.8213 32.8586 20.8213 32.578V29.5312C20.8213 29.2506 21.0484 29.0234 21.3291 29.0234C21.6098 29.0234 21.8369 29.2506 21.8369 29.5312V32.578C21.8369 32.6447 21.8238 32.7107 21.7983 32.7724C21.7728 32.834 21.7354 32.89 21.6882 32.9371C21.6411 32.9843 21.5851 33.0216 21.5235 33.0471C21.4618 33.0726 21.3958 33.0857 21.3291 33.0857ZM31.4847 33.0857C31.204 33.0857 30.9769 32.8586 30.9769 32.578V29.5312C30.9769 29.2506 31.204 29.0234 31.4847 29.0234C31.7654 29.0234 31.9925 29.2506 31.9925 29.5312V32.578C31.9926 32.6447 31.9795 32.7107 31.9539 32.7724C31.9284 32.834 31.891 32.89 31.8439 32.9371C31.7967 32.9843 31.7407 33.0216 31.6791 33.0471C31.6175 33.0726 31.5514 33.0857 31.4847 33.0857Z" fill="black"/>
<path d="M38.5936 33.0857C38.3129 33.0857 38.0858 32.8586 38.0858 32.5781V31.5624C38.0858 31.2817 38.3129 31.0546 38.5936 31.0546C38.6603 31.0546 38.7264 31.0677 38.788 31.0932C38.8496 31.1187 38.9056 31.1561 38.9527 31.2033C38.9999 31.2505 39.0373 31.3064 39.0628 31.3681C39.0883 31.4297 39.1014 31.4957 39.1013 31.5624V32.5781C39.1013 32.6447 39.0882 32.7108 39.0627 32.7724C39.0372 32.834 38.9998 32.89 38.9527 32.9371C38.9055 32.9843 38.8496 33.0217 38.7879 33.0472C38.7263 33.0727 38.6603 33.0858 38.5936 33.0857ZM41.6402 32.8368C41.3596 32.8368 41.1324 32.6098 41.1324 32.3291V31.3273C41.1324 31.0466 41.3596 30.8195 41.6402 30.8195C41.9209 30.8195 42.1481 31.0466 42.1481 31.3273V32.3291C42.1481 32.3958 42.135 32.4618 42.1095 32.5235C42.084 32.5851 42.0466 32.6411 41.9994 32.6882C41.9522 32.7354 41.8962 32.7728 41.8346 32.7982C41.773 32.8237 41.7069 32.8368 41.6402 32.8368ZM35.5469 32.827C35.2662 32.827 35.0391 32.5999 35.0391 32.3192V31.3135C35.0391 31.0328 35.2662 30.8057 35.5469 30.8057C35.8276 30.8057 36.0547 31.0328 36.0547 31.3135V32.3192C36.0547 32.5999 35.8276 32.827 35.5469 32.827Z" fill="black"/>
<path d="M38.5936 31.0543C34.4411 31.0543 33.2757 30.0091 33.1567 29.89C33.0618 29.7957 33.008 29.6678 33.0069 29.5341C33.0057 29.4004 33.0574 29.2716 33.1507 29.1757C33.2439 29.0798 33.3712 29.0246 33.505 29.0221C33.6387 29.0195 33.768 29.0698 33.8649 29.1621C33.9045 29.1958 34.9478 30.0388 38.5936 30.0388C42.2938 30.0388 43.3134 29.1699 43.3233 29.1621C43.5275 28.9776 43.8459 28.9875 44.0353 29.1878C44.2237 29.3882 44.2248 29.6956 44.0304 29.89C43.9114 30.0091 42.7461 31.0543 38.5936 31.0543ZM38.5936 34.101C34.4411 34.101 33.2757 33.0557 33.1567 32.9366C33.1096 32.8895 33.0722 32.8335 33.0467 32.772C33.0211 32.7104 33.008 32.6443 33.008 32.5777C33.008 32.511 33.0211 32.445 33.0467 32.3834C33.0722 32.3218 33.1096 32.2658 33.1567 32.2187C33.2502 32.1251 33.3765 32.0717 33.5088 32.0698C33.6411 32.068 33.7688 32.1179 33.8649 32.2088C33.9045 32.2426 34.9478 33.0854 38.5936 33.0854C42.2938 33.0854 43.3134 32.2167 43.3233 32.2088C43.5275 32.0244 43.8459 32.0343 44.0353 32.2346C44.2237 32.4349 44.2248 32.7424 44.0304 32.9366C43.9114 33.0557 42.7461 34.101 38.5936 34.101Z" fill="black"/>
<path d="M43.6714 30.0389C43.5415 30.0391 43.4165 29.9894 43.3223 29.9C43.2827 29.8663 42.2394 29.0233 38.5937 29.0233C34.8933 29.0233 33.8738 29.8922 33.8639 29.9C33.6586 30.0826 33.3397 30.0746 33.1518 29.8743C32.9634 29.6739 32.9624 29.3665 33.1568 29.1721C33.2758 29.053 34.4411 28.0078 38.5937 28.0078C42.7462 28.0078 43.9115 29.053 44.0304 29.1721C44.1014 29.2431 44.1498 29.3336 44.1693 29.4321C44.1889 29.5306 44.1789 29.6327 44.1405 29.7254C44.102 29.8182 44.037 29.8975 43.9535 29.9533C43.87 30.0091 43.7718 30.0389 43.6714 30.0389Z" fill="black"/>
<path d="M33.5156 33.0857C33.2349 33.0857 33.0078 32.8586 33.0078 32.578V29.5312C33.0078 29.2506 33.2349 29.0234 33.5156 29.0234C33.7963 29.0234 34.0234 29.2506 34.0234 29.5312V32.578C34.0235 32.6447 34.0104 32.7107 33.9848 32.7724C33.9593 32.834 33.9219 32.89 33.8748 32.9371C33.8276 32.9843 33.7716 33.0216 33.71 33.0471C33.6484 33.0726 33.5823 33.0857 33.5156 33.0857ZM43.6712 33.0857C43.3905 33.0857 43.1634 32.8586 43.1634 32.578V29.5312C43.1634 29.2506 43.3905 29.0234 43.6712 29.0234C43.9519 29.0234 44.1791 29.2506 44.1791 29.5312V32.578C44.1791 32.6447 44.166 32.7107 44.1405 32.7724C44.115 32.834 44.0775 32.89 44.0304 32.9371C43.9832 32.9843 43.9272 33.0216 43.8656 33.0471C43.804 33.0726 43.7379 33.0857 43.6712 33.0857Z" fill="black"/>
<path d="M50.7801 45.2723C50.4995 45.2723 50.2723 45.0451 50.2723 44.7646V43.749C50.2723 43.4683 50.4995 43.2411 50.7801 43.2411C50.8468 43.2411 50.9129 43.2542 50.9745 43.2797C51.0361 43.3052 51.0921 43.3426 51.1393 43.3898C51.1864 43.437 51.2238 43.493 51.2493 43.5546C51.2748 43.6162 51.2879 43.6823 51.2878 43.749V44.7646C51.2879 44.8313 51.2748 44.8973 51.2493 44.9589C51.2238 45.0205 51.1864 45.0765 51.1392 45.1236C51.0921 45.1708 51.0361 45.2082 50.9745 45.2337C50.9129 45.2592 50.8468 45.2723 50.7801 45.2723ZM53.8268 45.0233C53.5461 45.0233 53.319 44.7963 53.319 44.5156V43.5138C53.319 43.2331 53.5461 43.006 53.8268 43.006C54.1075 43.006 54.3346 43.2331 54.3346 43.5138V44.5156C54.3346 44.5823 54.3215 44.6484 54.296 44.71C54.2705 44.7716 54.2331 44.8276 54.1859 44.8747C54.1387 44.9219 54.0828 44.9593 54.0211 44.9848C53.9595 45.0103 53.8935 45.0234 53.8268 45.0233ZM47.7334 45.0135C47.4527 45.0135 47.2256 44.7864 47.2256 44.5057V43.5C47.2256 43.2193 47.4527 42.9922 47.7334 42.9922C48.0141 42.9922 48.2412 43.2193 48.2412 43.5V44.5057C48.2412 44.7864 48.0141 45.0135 47.7334 45.0135Z" fill="black"/>
<path d="M50.7804 43.2412C46.6279 43.2412 45.4625 42.196 45.3435 42.0769C45.2483 41.9817 45.1949 41.8526 45.1949 41.7179C45.1949 41.5833 45.2483 41.4541 45.3435 41.3589C45.437 41.2653 45.5633 41.2119 45.6956 41.21C45.8279 41.2082 45.9556 41.258 46.0517 41.349C46.0913 41.3827 47.1346 42.2257 50.7804 42.2257C54.4806 42.2257 55.5002 41.3568 55.5101 41.349C55.7143 41.1655 56.0327 41.1744 56.2222 41.3747C56.4106 41.5751 56.4116 41.8826 56.2172 42.0769C56.0983 42.196 54.933 43.2412 50.7804 43.2412ZM50.7804 46.288C46.6279 46.288 45.4625 45.2426 45.3435 45.1235C45.2964 45.0764 45.259 45.0205 45.2335 44.9589C45.208 44.8973 45.1948 44.8313 45.1948 44.7646C45.1948 44.6979 45.208 44.6319 45.2335 44.5703C45.259 44.5087 45.2964 44.4528 45.3435 44.4056C45.437 44.312 45.5633 44.2586 45.6956 44.2568C45.8279 44.2549 45.9556 44.3048 46.0517 44.3957C46.0913 44.4295 47.1346 45.2723 50.7804 45.2723C54.4806 45.2723 55.5002 44.4036 55.5101 44.3957C55.7143 44.2113 56.0327 44.2212 56.2222 44.4215C56.4106 44.6218 56.4116 44.9293 56.2172 45.1235C56.0983 45.2426 54.933 46.288 50.7804 46.288Z" fill="black"/>
<path d="M55.8579 42.2255C55.728 42.2257 55.6031 42.1759 55.5088 42.0866C55.4692 42.0528 54.4259 41.2098 50.7802 41.2098C47.0799 41.2098 46.0603 42.0787 46.0504 42.0866C45.8451 42.2691 45.5257 42.2591 45.3383 42.0608C45.1499 41.8605 45.1489 41.553 45.3433 41.3586C45.4624 41.2395 46.6277 40.1943 50.7802 40.1943C54.9327 40.1943 56.098 41.2395 56.2169 41.3586C56.2879 41.4296 56.3363 41.5201 56.3559 41.6186C56.3755 41.7171 56.3654 41.8192 56.327 41.912C56.2885 42.0047 56.2235 42.084 56.14 42.1398C56.0565 42.1956 55.9583 42.2254 55.8579 42.2255Z" fill="black"/>
<path d="M45.7021 45.2722C45.4215 45.2722 45.1943 45.0451 45.1943 44.7645V41.7178C45.1943 41.4371 45.4215 41.21 45.7021 41.21C45.9828 41.21 46.21 41.4371 46.21 41.7178V44.7645C46.21 44.8312 46.1969 44.8973 46.1714 44.9589C46.1459 45.0205 46.1085 45.0765 46.0613 45.1236C46.0141 45.1708 45.9581 45.2082 45.8965 45.2337C45.8349 45.2592 45.7688 45.2723 45.7021 45.2722ZM55.8578 45.2722C55.5771 45.2722 55.35 45.0451 55.35 44.7645V41.7178C55.35 41.4371 55.5771 41.21 55.8578 41.21C56.1385 41.21 56.3656 41.4371 56.3656 41.7178V44.7645C56.3656 44.8312 56.3525 44.8973 56.327 44.9589C56.3015 45.0205 56.2641 45.0765 56.2169 45.1236C56.1697 45.1708 56.1138 45.2082 56.0521 45.2337C55.9905 45.2592 55.9245 45.2723 55.8578 45.2722Z" fill="black"/>
<path d="M32.4999 13.7898C32.4332 13.7898 32.3671 13.7767 32.3055 13.7512C32.2439 13.7257 32.1879 13.6883 32.1408 13.6411C32.0936 13.5939 32.0562 13.5379 32.0307 13.4763C32.0052 13.4147 31.9921 13.3486 31.9922 13.282V1.09521C31.9922 0.814521 32.2193 0.587402 32.4999 0.587402C32.7806 0.587402 33.0077 0.814521 33.0077 1.09521V13.282C33.0077 13.5626 32.7806 13.7898 32.4999 13.7898Z" fill="black"/>
<path d="M38.5944 5.6654H32.5004C32.4337 5.66543 32.3676 5.65232 32.306 5.62681C32.2444 5.6013 32.1884 5.56389 32.1413 5.51673C32.0941 5.46957 32.0567 5.41357 32.0312 5.35195C32.0057 5.29032 31.9926 5.22428 31.9927 5.15759V3.12646C31.9927 2.84577 32.2198 2.61865 32.5004 2.61865H38.5944C38.6611 2.61862 38.7271 2.63173 38.7887 2.65724C38.8503 2.68275 38.9063 2.72016 38.9535 2.76732C39.0006 2.81448 39.038 2.87048 39.0635 2.9321C39.089 2.99373 39.1021 3.05977 39.1021 3.12646V5.15759C39.1021 5.43828 38.8749 5.6654 38.5944 5.6654ZM33.0082 4.64978H38.0866V3.63428H33.0082V4.64978Z" fill="black"/>
<path d="M36.5623 7.69661C36.4619 7.69656 36.3637 7.66675 36.2802 7.61094C36.1968 7.55513 36.1317 7.47582 36.0933 7.38305C36.0549 7.29028 36.0449 7.1882 36.0644 7.08972C36.084 6.99124 36.1324 6.90078 36.2034 6.82977L38.2355 4.79865C38.3314 4.70686 38.4595 4.65628 38.5922 4.65775C38.725 4.65921 38.8519 4.7126 38.9457 4.80648C39.0396 4.90036 39.0929 5.02727 39.0944 5.16002C39.0958 5.29277 39.0452 5.4208 38.9534 5.51669L36.9213 7.54782C36.8742 7.59504 36.8182 7.6325 36.7566 7.65803C36.695 7.68357 36.629 7.69668 36.5623 7.69661Z" fill="black"/>
<path d="M44.6869 7.69678H36.5624C36.2818 7.69678 36.0547 7.46966 36.0547 7.18896C36.0547 6.90827 36.2818 6.68115 36.5624 6.68115H44.6869C44.9676 6.68115 45.1947 6.90827 45.1947 7.18896C45.1947 7.46966 44.9676 7.69678 44.6869 7.69678Z" fill="black"/>
<path d="M44.6866 5.66553H39.6089C39.3282 5.66553 39.1011 5.43841 39.1011 5.15771C39.1011 4.87702 39.3282 4.6499 39.6089 4.6499H44.6866C44.9673 4.6499 45.1944 4.87702 45.1944 5.15771C45.1944 5.43841 44.9673 5.66553 44.6866 5.66553Z" fill="black"/>
<path d="M44.6868 7.69661C44.6201 7.69667 44.5541 7.68356 44.4925 7.65803C44.4309 7.63249 44.375 7.59504 44.3279 7.54782L43.3123 6.53219C43.2651 6.48506 43.2277 6.4291 43.2022 6.36751C43.1767 6.30592 43.1636 6.2399 43.1636 6.17323C43.1636 6.10656 43.1767 6.04055 43.2022 5.97896C43.2277 5.91737 43.2651 5.86141 43.3123 5.81427L44.3279 4.79865C44.4238 4.70686 44.5519 4.65628 44.6846 4.65775C44.8174 4.65921 44.9443 4.7126 45.0381 4.80648C45.132 4.90036 45.1854 5.02727 45.1868 5.16002C45.1882 5.29277 45.1376 5.4208 45.0458 5.51669L44.3894 6.17317L45.0458 6.82964C45.1169 6.90066 45.1653 6.99114 45.1849 7.08965C45.2045 7.18817 45.1944 7.29028 45.156 7.38309C45.1176 7.47589 45.0525 7.55521 44.969 7.61102C44.8855 7.66683 44.7873 7.69661 44.6868 7.69661Z" fill="black"/>
<path d="M32.5006 25.9765C29.4207 25.9765 26.915 23.4709 26.915 20.3909C26.915 17.3108 29.4207 14.8052 32.5006 14.8052C35.5806 14.8052 38.0858 17.3108 38.0858 20.3909C38.0858 23.4709 35.5806 25.9765 32.5006 25.9765ZM32.5006 15.8209C29.9806 15.8209 27.9307 17.8708 27.9307 20.391C27.9307 22.9111 29.9806 24.961 32.5006 24.961C35.0202 24.961 37.0701 22.9111 37.0701 20.391C37.0701 17.8708 35.0202 15.8209 32.5006 15.8209Z" fill="black"/>
<path d="M32.5006 28.008C29.4207 28.008 26.915 25.5024 26.915 22.4224C26.915 22.1418 27.1422 21.9146 27.4229 21.9146C27.7035 21.9146 27.9307 22.1417 27.9307 22.4224C27.9307 24.9424 29.9806 26.9924 32.5006 26.9924C35.0202 26.9924 37.0701 24.9425 37.0701 22.4224C37.0701 22.1418 37.2973 21.9146 37.578 21.9146C37.8587 21.9146 38.0858 22.1417 38.0858 22.4224C38.0858 25.5024 35.5806 28.008 32.5006 28.008Z" fill="black"/>
<path d="M27.4229 22.9299C27.1422 22.9299 26.915 22.7028 26.915 22.4221V20.391C26.915 20.1104 27.1422 19.8832 27.4229 19.8832C27.7035 19.8832 27.9307 20.1103 27.9307 20.391V22.4221C27.9307 22.7028 27.7035 22.9299 27.4229 22.9299ZM37.578 22.9299C37.2973 22.9299 37.0701 22.7028 37.0701 22.4221V20.391C37.0701 20.1104 37.2973 19.8832 37.578 19.8832C37.8587 19.8832 38.0858 20.1103 38.0858 20.391V22.4221C38.0858 22.7028 37.8587 22.9299 37.578 22.9299ZM35.5468 26.9922C35.2672 26.9922 35.039 26.765 35.039 26.4844V24.4532C35.039 24.1727 35.2672 23.9454 35.5468 23.9454C35.8285 23.9454 36.0546 24.1725 36.0546 24.4532V26.4844C36.0546 26.765 35.8285 26.9922 35.5468 26.9922ZM32.5006 28.0078C32.4339 28.0078 32.3679 27.9947 32.3062 27.9692C32.2446 27.9437 32.1886 27.9063 32.1415 27.8591C32.0943 27.812 32.0569 27.756 32.0314 27.6943C32.006 27.6327 31.9929 27.5667 31.9929 27.5V25.4689C31.9929 25.1882 32.22 24.961 32.5006 24.961C32.7813 24.961 33.0084 25.1882 33.0084 25.4689V27.5C33.0084 27.7807 32.7813 28.0078 32.5006 28.0078ZM29.455 26.9922C29.1743 26.9922 28.9472 26.765 28.9472 26.4844V24.4532C28.9472 24.1727 29.1743 23.9454 29.455 23.9454C29.7357 23.9454 29.9628 24.1725 29.9628 24.4532V26.4844C29.9628 26.765 29.7357 26.9922 29.455 26.9922ZM32.5006 22.9299C32.4339 22.93 32.3679 22.9168 32.3062 22.8913C32.2446 22.8658 32.1886 22.8284 32.1415 22.7813C32.0943 22.7341 32.0569 22.6781 32.0314 22.6165C32.006 22.5548 31.9929 22.4888 31.9929 22.4221V18.3599C31.9929 18.0793 32.22 17.8521 32.5006 17.8521C32.7813 17.8521 33.0084 18.0792 33.0084 18.3599V22.4221C33.0084 22.7028 32.7813 22.9299 32.5006 22.9299Z" fill="black"/>
<path d="M64.4902 54.4126H0.509766C0.229072 54.4126 0.00195312 54.1855 0.00195312 53.9048C0.00195312 53.6241 0.229072 53.397 0.509766 53.397H64.4903C64.7709 53.397 64.998 53.6241 64.998 53.9048C64.998 54.1855 64.7708 54.4126 64.4902 54.4126Z" fill="black"/>
</svg>
