<svg width="66" height="59" viewBox="0 0 66 59" fill="none" xmlns="http://www.w3.org/2000/svg">
<path d="M1.54566 57.274C1.81519 57.6441 2.16999 57.9455 2.58075 58.1533C2.99151 58.3612 3.44644 58.4695 3.90797 58.4694H62.093C62.5537 58.4691 63.0078 58.3606 63.4178 58.1531C63.8278 57.9455 64.182 57.6447 64.4513 57.2755C64.7206 56.9062 64.8973 56.4791 64.9667 56.0292C65.0362 55.5794 64.9965 55.1197 64.8509 54.6879L59.0324 37.4471C58.8396 36.8751 58.4695 36.3776 57.9745 36.0249C57.4795 35.6721 56.8848 35.4821 56.2745 35.4816H49.6414L44.4862 20.2063C44.2933 19.6343 43.9232 19.1368 43.4282 18.784C42.9333 18.4313 42.3386 18.2413 41.7282 18.2408H24.2727C23.6624 18.2413 23.0676 18.4313 22.5727 18.784C22.0777 19.1368 21.7076 19.6343 21.5147 20.2063L16.3596 35.4816H9.72647C9.11613 35.4821 8.52139 35.6721 8.02643 36.0249C7.53147 36.3776 7.16137 36.8751 6.9685 37.4471L1.15 54.6879C1.00409 55.1192 0.963876 55.5784 1.03266 56.028C1.10144 56.4776 1.27726 56.9046 1.54566 57.274ZM33.0005 46.5129L31.2171 41.2286H34.7838L33.0005 46.5129ZM54.1769 41.2286L58.0549 52.7225H37.0385L40.9165 41.2286H54.1769ZM26.3703 23.9878H39.6306L43.5087 35.4816H22.4923L26.3703 23.9878ZM11.824 41.2286H25.0844L28.9624 52.7225H7.94601L11.824 41.2286ZM33.0005 12.4939C32.2289 12.4939 31.4889 12.1911 30.9433 11.6523C30.3977 11.1134 30.0912 10.3825 30.0912 9.62041V3.87347C30.0912 3.11138 30.3977 2.3805 30.9433 1.84162C31.4889 1.30274 32.2289 1 33.0005 1C33.772 1 34.512 1.30274 35.0576 1.84162C35.6032 2.3805 35.9097 3.11138 35.9097 3.87347V9.62041C35.9097 10.3825 35.6032 11.1134 35.0576 11.6523C34.512 12.1911 33.772 12.4939 33.0005 12.4939ZM53.5718 9.41639C54.1172 9.95525 54.4236 10.686 54.4236 11.4479C54.4236 12.2099 54.1172 12.9406 53.5718 13.4795L49.4581 17.5426C48.9094 18.066 48.1745 18.3556 47.4117 18.3491C46.6489 18.3425 45.9193 18.0403 45.3799 17.5076C44.8405 16.9748 44.5345 16.2541 44.5279 15.5007C44.5212 14.7473 44.8145 14.0214 45.3444 13.4795L49.4581 9.41639C50.0037 8.8777 50.7435 8.57508 51.5149 8.57508C52.2864 8.57508 53.0262 8.8777 53.5718 9.41639ZM16.5428 17.5426L12.4292 13.4795C11.8992 12.9375 11.606 12.2117 11.6126 11.4583C11.6192 10.7049 11.9252 9.98416 12.4646 9.4514C13.004 8.91863 13.7337 8.61643 14.4965 8.60988C15.2593 8.60334 15.9941 8.89297 16.5428 9.41639L20.6565 13.4795C20.9344 13.7445 21.156 14.0616 21.3085 14.4122C21.461 14.7628 21.5412 15.1398 21.5446 15.5214C21.5479 15.9029 21.4743 16.2813 21.328 16.6344C21.1818 16.9876 20.9657 17.3084 20.6926 17.5782C20.4194 17.848 20.0946 18.0613 19.7371 18.2058C19.3795 18.3503 18.9964 18.423 18.6101 18.4197C18.2239 18.4164 17.8421 18.3371 17.4872 18.1865C17.1322 18.0359 16.8112 17.817 16.5428 17.5426ZM6.81722 26.8612H12.6357C13.4073 26.8612 14.1473 27.164 14.6929 27.7028C15.2385 28.2417 15.545 28.9726 15.545 29.7347C15.545 30.4968 15.2385 31.2277 14.6929 31.7665C14.1473 32.3054 13.4073 32.6082 12.6357 32.6082H6.81722C6.04564 32.6082 5.30566 32.3054 4.76007 31.7665C4.21448 31.2277 3.90797 30.4968 3.90797 29.7347C3.90797 28.9726 4.21448 28.2417 4.76007 27.7028C5.30566 27.164 6.04564 26.8612 6.81722 26.8612ZM53.3652 26.8612H59.1837C59.9553 26.8612 60.6953 27.164 61.2409 27.7028C61.7865 28.2417 62.093 28.9726 62.093 29.7347C62.093 30.4968 61.7865 31.2277 61.2409 31.7665C60.6953 32.3054 59.9553 32.6082 59.1837 32.6082H53.3652C52.5936 32.6082 51.8536 32.3054 51.3081 31.7665C50.7625 31.2277 50.456 30.4968 50.456 29.7347C50.456 28.9726 50.7625 28.2417 51.3081 27.7028C51.8536 27.164 52.5936 26.8612 53.3652 26.8612Z" fill="#FFD15C"/>
<path d="M1.54566 57.274C1.81519 57.6441 2.16999 57.9455 2.58075 58.1533C2.99151 58.3612 3.44644 58.4695 3.90797 58.4694H62.093C62.5537 58.4691 63.0078 58.3606 63.4178 58.1531C63.8278 57.9455 64.182 57.6447 64.4513 57.2755C64.7206 56.9062 64.8973 56.4791 64.9667 56.0292C65.0362 55.5794 64.9965 55.1197 64.8509 54.6879L59.0324 37.4471C58.8396 36.8751 58.4695 36.3776 57.9745 36.0249C57.4795 35.6721 56.8848 35.4821 56.2745 35.4816H49.6414L44.4862 20.2063C44.2933 19.6343 43.9232 19.1368 43.4282 18.784C42.9333 18.4313 42.3386 18.2413 41.7282 18.2408H24.2727C23.6624 18.2413 23.0676 18.4313 22.5727 18.784C22.0777 19.1368 21.7076 19.6343 21.5147 20.2063L16.3596 35.4816H9.72647C9.11613 35.4821 8.52139 35.6721 8.02643 36.0249C7.53147 36.3776 7.16137 36.8751 6.9685 37.4471L1.15 54.6879C1.00409 55.1192 0.963876 55.5784 1.03266 56.028C1.10144 56.4776 1.27726 56.9046 1.54566 57.274ZM33.0005 46.5129L31.2171 41.2286H34.7838L33.0005 46.5129ZM54.1769 41.2286L58.0549 52.7225H37.0385L40.9165 41.2286H54.1769ZM26.3703 23.9878H39.6306L43.5087 35.4816H22.4923L26.3703 23.9878ZM11.824 41.2286H25.0844L28.9624 52.7225H7.94601L11.824 41.2286ZM33.0005 12.4939C32.2289 12.4939 31.4889 12.1911 30.9433 11.6523C30.3977 11.1134 30.0912 10.3825 30.0912 9.62041V3.87347C30.0912 3.11138 30.3977 2.3805 30.9433 1.84162C31.4889 1.30274 32.2289 1 33.0005 1C33.772 1 34.512 1.30274 35.0576 1.84162C35.6032 2.3805 35.9097 3.11138 35.9097 3.87347V9.62041C35.9097 10.3825 35.6032 11.1134 35.0576 11.6523C34.512 12.1911 33.772 12.4939 33.0005 12.4939ZM53.5718 9.41639C54.1172 9.95525 54.4236 10.686 54.4236 11.4479C54.4236 12.2099 54.1172 12.9406 53.5718 13.4795L49.4581 17.5426C48.9094 18.066 48.1745 18.3556 47.4117 18.3491C46.6489 18.3425 45.9193 18.0403 45.3799 17.5076C44.8405 16.9748 44.5345 16.2541 44.5279 15.5007C44.5212 14.7473 44.8145 14.0214 45.3444 13.4795L49.4581 9.41639C50.0037 8.8777 50.7435 8.57508 51.5149 8.57508C52.2864 8.57508 53.0262 8.8777 53.5718 9.41639ZM16.5428 17.5426L12.4292 13.4795C11.8992 12.9375 11.606 12.2117 11.6126 11.4583C11.6192 10.7049 11.9252 9.98416 12.4646 9.4514C13.004 8.91863 13.7337 8.61643 14.4965 8.60988C15.2593 8.60334 15.9941 8.89297 16.5428 9.41639L20.6565 13.4795C20.9344 13.7445 21.156 14.0616 21.3085 14.4122C21.461 14.7628 21.5412 15.1398 21.5446 15.5214C21.5479 15.9029 21.4743 16.2813 21.328 16.6344C21.1818 16.9876 20.9657 17.3084 20.6926 17.5782C20.4194 17.848 20.0946 18.0613 19.7371 18.2058C19.3795 18.3503 18.9964 18.423 18.6101 18.4197C18.2239 18.4164 17.8421 18.3371 17.4872 18.1865C17.1322 18.0359 16.8112 17.817 16.5428 17.5426ZM6.81722 26.8612H12.6357C13.4073 26.8612 14.1473 27.164 14.6929 27.7028C15.2385 28.2417 15.545 28.9726 15.545 29.7347C15.545 30.4968 15.2385 31.2277 14.6929 31.7665C14.1473 32.3054 13.4073 32.6082 12.6357 32.6082H6.81722C6.04564 32.6082 5.30566 32.3054 4.76007 31.7665C4.21448 31.2277 3.90797 30.4968 3.90797 29.7347C3.90797 28.9726 4.21448 28.2417 4.76007 27.7028C5.30566 27.164 6.04564 26.8612 6.81722 26.8612ZM53.3652 26.8612H59.1837C59.9553 26.8612 60.6953 27.164 61.2409 27.7028C61.7865 28.2417 62.093 28.9726 62.093 29.7347C62.093 30.4968 61.7865 31.2277 61.2409 31.7665C60.6953 32.3054 59.9553 32.6082 59.1837 32.6082H53.3652C52.5936 32.6082 51.8536 32.3054 51.3081 31.7665C50.7625 31.2277 50.456 30.4968 50.456 29.7347C50.456 28.9726 50.7625 28.2417 51.3081 27.7028C51.8536 27.164 52.5936 26.8612 53.3652 26.8612Z" stroke="#FFD15C"/>
<path d="M1.54566 57.274C1.81519 57.6441 2.16999 57.9455 2.58075 58.1533C2.99151 58.3612 3.44644 58.4695 3.90797 58.4694H62.093C62.5537 58.4691 63.0078 58.3606 63.4178 58.1531C63.8278 57.9455 64.182 57.6447 64.4513 57.2755C64.7206 56.9062 64.8973 56.4791 64.9667 56.0292C65.0362 55.5794 64.9965 55.1197 64.8509 54.6879L59.0324 37.4471C58.8396 36.8751 58.4695 36.3776 57.9745 36.0249C57.4795 35.6721 56.8848 35.4821 56.2745 35.4816H49.6414L44.4862 20.2063C44.2933 19.6343 43.9232 19.1368 43.4282 18.784C42.9333 18.4313 42.3386 18.2413 41.7282 18.2408H24.2727C23.6624 18.2413 23.0676 18.4313 22.5727 18.784C22.0777 19.1368 21.7076 19.6343 21.5147 20.2063L16.3596 35.4816H9.72647C9.11613 35.4821 8.52139 35.6721 8.02643 36.0249C7.53147 36.3776 7.16137 36.8751 6.9685 37.4471L1.15 54.6879C1.00409 55.1192 0.963876 55.5784 1.03266 56.028C1.10144 56.4776 1.27726 56.9046 1.54566 57.274ZM33.0005 46.5129L31.2171 41.2286H34.7838L33.0005 46.5129ZM54.1769 41.2286L58.0549 52.7225H37.0385L40.9165 41.2286H54.1769ZM26.3703 23.9878H39.6306L43.5087 35.4816H22.4923L26.3703 23.9878ZM11.824 41.2286H25.0844L28.9624 52.7225H7.94601L11.824 41.2286ZM33.0005 12.4939C32.2289 12.4939 31.4889 12.1911 30.9433 11.6523C30.3977 11.1134 30.0912 10.3825 30.0912 9.62041V3.87347C30.0912 3.11138 30.3977 2.3805 30.9433 1.84162C31.4889 1.30274 32.2289 1 33.0005 1C33.772 1 34.512 1.30274 35.0576 1.84162C35.6032 2.3805 35.9097 3.11138 35.9097 3.87347V9.62041C35.9097 10.3825 35.6032 11.1134 35.0576 11.6523C34.512 12.1911 33.772 12.4939 33.0005 12.4939ZM53.5718 9.41639C54.1172 9.95525 54.4236 10.686 54.4236 11.4479C54.4236 12.2099 54.1172 12.9406 53.5718 13.4795L49.4581 17.5426C48.9094 18.066 48.1745 18.3556 47.4117 18.3491C46.6489 18.3425 45.9193 18.0403 45.3799 17.5076C44.8405 16.9748 44.5345 16.2541 44.5279 15.5007C44.5212 14.7473 44.8145 14.0214 45.3444 13.4795L49.4581 9.41639C50.0037 8.8777 50.7435 8.57508 51.5149 8.57508C52.2864 8.57508 53.0262 8.8777 53.5718 9.41639ZM16.5428 17.5426L12.4292 13.4795C11.8992 12.9375 11.606 12.2117 11.6126 11.4583C11.6192 10.7049 11.9252 9.98416 12.4646 9.4514C13.004 8.91863 13.7337 8.61643 14.4965 8.60988C15.2593 8.60334 15.9941 8.89297 16.5428 9.41639L20.6565 13.4795C20.9344 13.7445 21.156 14.0616 21.3085 14.4122C21.461 14.7628 21.5412 15.1398 21.5446 15.5214C21.5479 15.9029 21.4743 16.2813 21.328 16.6344C21.1818 16.9876 20.9657 17.3084 20.6926 17.5782C20.4194 17.848 20.0946 18.0613 19.7371 18.2058C19.3795 18.3503 18.9964 18.423 18.6101 18.4197C18.2239 18.4164 17.8421 18.3371 17.4872 18.1865C17.1322 18.0359 16.8112 17.817 16.5428 17.5426ZM6.81722 26.8612H12.6357C13.4073 26.8612 14.1473 27.164 14.6929 27.7028C15.2385 28.2417 15.545 28.9726 15.545 29.7347C15.545 30.4968 15.2385 31.2277 14.6929 31.7665C14.1473 32.3054 13.4073 32.6082 12.6357 32.6082H6.81722C6.04564 32.6082 5.30566 32.3054 4.76007 31.7665C4.21448 31.2277 3.90797 30.4968 3.90797 29.7347C3.90797 28.9726 4.21448 28.2417 4.76007 27.7028C5.30566 27.164 6.04564 26.8612 6.81722 26.8612ZM53.3652 26.8612H59.1837C59.9553 26.8612 60.6953 27.164 61.2409 27.7028C61.7865 28.2417 62.093 28.9726 62.093 29.7347C62.093 30.4968 61.7865 31.2277 61.2409 31.7665C60.6953 32.3054 59.9553 32.6082 59.1837 32.6082H53.3652C52.5936 32.6082 51.8536 32.3054 51.3081 31.7665C50.7625 31.2277 50.456 30.4968 50.456 29.7347C50.456 28.9726 50.7625 28.2417 51.3081 27.7028C51.8536 27.164 52.5936 26.8612 53.3652 26.8612Z" stroke="black" stroke-opacity="0.2"/>
</svg>
