<svg width="91" height="107" viewBox="0 0 91 107" fill="none" xmlns="http://www.w3.org/2000/svg">
<path d="M4 102.648V94.8596C4 79.0884 16.7739 66.3037 32.5312 66.3037H58.4688C74.2263 66.3037 87 79.0884 87 94.8596V102.648M24.75 102.648V89.6676V102.648ZM66.25 102.648V88.8021V102.648ZM27.3438 27.3639C37.7914 36.3269 53.2086 36.3269 63.6562 27.3639H27.3438ZM66.25 29.9599V19.1998L73.8533 8.06038C75.0298 6.33732 73.7968 4 71.7119 4H19.2882C17.2032 4 15.9704 6.33732 17.1465 8.06038L24.75 19.1998V29.9599M66.25 35.1519C66.25 46.6214 56.9597 55.9198 45.5 55.9198C34.0401 55.9198 24.75 46.6214 24.75 35.1519V22.1719H66.25V35.1519Z" fill="#D9D9D9"/>
<path d="M4 102.648V94.8596C4 79.0884 16.7739 66.3037 32.5312 66.3037H58.4688C74.2263 66.3037 87 79.0884 87 94.8596V102.648M24.75 102.648V89.6676M66.25 102.648V88.8021M27.3438 27.3639C37.7914 36.3268 53.2086 36.3268 63.6562 27.3639M66.25 29.9599V19.1998L73.8533 8.06038C75.0298 6.33732 73.7968 4 71.7119 4H19.2882C17.2032 4 15.9704 6.33732 17.1465 8.06038L24.75 19.1998V29.9599M66.25 35.1519C66.25 46.6214 56.9597 55.9198 45.5 55.9198C34.0401 55.9198 24.75 46.6214 24.75 35.1519V22.1719H66.25V35.1519Z" stroke="#0450F2" stroke-width="7" stroke-linecap="round" stroke-linejoin="round"/>
</svg>
