<svg width="83" height="83" viewBox="0 0 83 83" fill="none" xmlns="http://www.w3.org/2000/svg">
<path d="M77.6004 63.3008C73.7063 60.4225 70.4478 56.2678 68.0223 52.0134C68.959 50.1564 69.5286 47.9594 69.5286 45.323C69.5286 27.3465 50.0836 17.8062 35.765 16.2608C32.2859 15.8859 29.0652 15.2974 26.289 14.6754C26.7095 13.9135 26.9704 13.0507 26.9704 12.1196C26.9704 9.18233 24.5879 6.7998 21.6504 6.7998C18.7655 6.7998 16.4302 9.1016 16.3469 11.9651C11.2839 12.3131 1.17359 16.8765 0.563408 18.7093C-0.0586061 20.5853 -1.28691 21.4694 4.32045 26.2033C4.32045 26.2033 18.7547 32.3482 22.2001 34.3154C27.3372 37.2516 22.751 44.0386 17.9808 45.1392C13.2118 46.2396 11.0109 51.0098 13.9455 53.9446C15.413 55.412 14.4656 50.4632 15.7796 52.8441C17.0952 55.2238 17.9806 52.8441 17.9806 52.8441C17.9806 52.8441 18.2724 48.2486 21.6503 48.0751C28.8045 47.7083 30.8227 41.4708 34.6751 51.1925C36.8116 56.5862 35.7757 61.0998 39.0772 64.4013C46.4152 71.7394 39.444 71.7394 36.5094 71.7394C33.5747 71.7394 29.2976 73.8503 31.3736 75.4064C32.841 76.5083 32.1073 76.1414 36.8762 76.1414C41.645 76.1414 48.2495 76.1414 48.2495 76.1414C48.2495 76.1414 50.0836 73.2053 47.8826 70.6375C45.6817 68.0697 47.61 65.2853 48.6164 63.6674C49.5556 62.1598 59.0087 61.4167 64.8795 56.101C66.4356 58.4902 68.1488 60.5742 69.8956 61.8319C73.7415 64.6027 77.1061 66.7501 77.7956 68.505C79.3111 72.3682 71.5471 74.0546 53.3853 74.3072C51.7352 74.3072 51.0929 76.1413 52.6516 76.1413C88.9738 76.1414 86.0391 69.5382 77.6004 63.3008Z" fill="black"/>
</svg>
