<svg width="51" height="87" viewBox="0 0 51 87" fill="none" xmlns="http://www.w3.org/2000/svg">
<path d="M22.8573 85.1246L22.8504 85.1182L2.02589 65.2817L2.02574 65.2816C0.890149 64.1994 0.663224 62.4235 1.51673 61.086C1.51752 61.0847 1.51832 61.0835 1.51911 61.0822L20.6635 30.6031L9.24532 13.3177L9.24454 13.3165C8.52519 12.2242 8.51252 10.795 9.20432 9.69078L9.2061 9.68795L9.2061 9.68795L13.7354 2.51185C13.7357 2.51146 13.7359 2.51106 13.7362 2.51066C14.3248 1.57506 15.3393 1 16.4464 1H31.9949C33.1022 1 34.1169 1.57527 34.7055 2.51117C34.7056 2.5114 34.7057 2.51162 34.7059 2.51185L39.2341 9.68616C39.2343 9.68649 39.2345 9.68683 39.2347 9.68716L39.2352 9.68795L38.3896 10.2217C38.8743 10.9861 38.8743 11.9835 38.3803 12.7479L22.8573 85.1246ZM22.8573 85.1246C23.4706 85.6979 24.255 86 25.0503 86C25.8437 86 26.6331 85.6989 27.2419 85.1171L48.0654 65.2817L48.0659 65.2812C49.2304 64.1703 49.4253 62.3645 48.5358 61.0227C48.5356 61.0224 48.5354 61.0222 48.5352 61.0219L27.2271 28.7521L27.2247 28.7484L27.171 28.668L27.1687 28.6646L15.7816 11.4303L18.2004 7.59557H30.2406L22.8573 85.1246ZM25.0501 78.1938L8.39718 62.3372L24.5959 36.5559L41.6523 62.3785L25.0501 78.1938Z" fill="black" stroke="black" stroke-width="2"/>
</svg>
